<svg width="145" height="35" viewBox="0 0 145 35" fill="none" xmlns="http://www.w3.org/2000/svg">
<path d="M139.862 5.13609C140.456 5.7301 141.158 6.02693 141.967 6.02693C142.801 6.02693 143.515 5.7301 144.109 5.13609C144.703 4.54224 145 3.84109 145 3.03245C145 2.22382 144.703 1.51623 144.109 0.90967C143.515 0.303278 142.801 0 141.967 0C141.158 0 140.456 0.303278 139.862 0.90967C139.268 1.51623 138.971 2.22382 138.971 3.03245C138.971 3.84109 139.268 4.54224 139.862 5.13609ZM75.8934 12.8896C75.8934 12.9517 75.8428 13.002 75.7805 13.002H71.6085V20.8863C71.6085 21.5433 71.7729 22.0234 72.1015 22.3267C72.4301 22.63 72.9104 22.8005 73.5424 22.8385C74.1206 22.8732 74.8257 22.8709 75.6577 22.8314L75.6791 22.8304L75.7176 22.8286L75.7746 22.8256C75.8392 22.8223 75.8934 22.8737 75.8934 22.938V27.1539C75.8934 27.1815 75.8832 27.2082 75.8647 27.2288C75.8462 27.2494 75.8207 27.2625 75.7931 27.2655L75.7166 27.2738C72.448 27.6221 70.1372 27.2998 68.7836 26.3068C67.4059 25.2959 66.7171 23.4891 66.7171 20.8863V13.002H63.5311C63.5012 13.002 63.4725 12.9902 63.4513 12.9691C63.4302 12.9481 63.4183 12.9195 63.4182 12.8897V8.41403C63.4182 8.35212 63.4688 8.30177 63.5311 8.30177H66.7171V5.17125C66.7171 5.0821 66.7699 5.00153 66.8516 4.96554L71.4501 2.94231C71.4673 2.93471 71.4861 2.93151 71.5048 2.93301C71.5236 2.9345 71.5416 2.94063 71.5574 2.95086C71.5731 2.96108 71.5861 2.97506 71.595 2.99153C71.6039 3.00801 71.6086 3.02644 71.6085 3.04517V8.30177H75.7805C75.8428 8.30177 75.8934 8.35212 75.8934 8.41403V12.8896ZM84.7631 11.5614C85.2182 10.3484 85.9702 9.43861 87.0193 8.83222C87.9793 8.27717 89.04 7.97604 90.2012 7.92915C90.2573 7.92668 90.3433 7.92502 90.4128 7.92403C90.4756 7.92304 90.5268 7.97356 90.5268 8.03597V13.1795C90.5268 13.2868 90.4331 13.3695 90.3258 13.3598C88.9152 13.2323 87.6487 13.5425 86.5263 14.2906C85.3509 15.0739 84.7631 16.3754 84.7631 18.1947V27.1417C84.7631 27.1715 84.7512 27.2001 84.7301 27.2212C84.7089 27.2423 84.6802 27.2541 84.6503 27.2541H79.9845C79.9546 27.2541 79.9258 27.2423 79.9047 27.2212C79.8835 27.2001 79.8716 27.1715 79.8716 27.1417V8.41387C79.8716 8.35179 79.9222 8.30161 79.9845 8.30161H84.6503C84.7126 8.30161 84.7631 8.35179 84.7631 8.41387V11.5614Z" fill="#212067"/>
<path fill-rule="evenodd" clip-rule="evenodd" d="M107.893 8.30129C107.863 8.30129 107.835 8.31311 107.813 8.33416C107.792 8.35521 107.78 8.38376 107.78 8.41355V10.5377C106.314 8.69289 104.254 7.77067 101.6 7.77067C99.0717 7.77067 96.9041 8.73713 95.0966 10.6702C93.2891 12.6035 92.3855 14.9726 92.3855 17.7775C92.3855 20.5825 93.2891 22.9516 95.0966 24.8848C96.9041 26.8179 99.0717 27.7846 101.6 27.7846C104.254 27.7846 106.314 26.8622 107.78 25.0174V27.1415C107.78 27.2036 107.831 27.2538 107.893 27.2538H112.559C112.574 27.2538 112.588 27.2509 112.602 27.2453C112.616 27.2397 112.628 27.2314 112.639 27.221C112.649 27.2105 112.658 27.1982 112.663 27.1845C112.669 27.1709 112.672 27.1563 112.672 27.1415V8.41355C112.672 8.38376 112.66 8.35521 112.639 8.33416C112.618 8.31311 112.589 8.30129 112.559 8.30129H107.893ZM98.7553 21.6439C99.7413 22.6295 100.993 23.1223 102.509 23.1223C104.026 23.1223 105.284 22.6232 106.282 21.6251C107.281 20.6269 107.78 19.3444 107.78 17.7775C107.78 16.2108 107.281 14.9283 106.282 13.9302C105.284 12.932 104.026 12.4329 102.509 12.4329C100.993 12.4329 99.7413 12.932 98.7553 13.9303C97.7695 14.9283 97.2765 16.2108 97.2765 17.7775C97.2765 19.3444 97.7695 20.6332 98.7553 21.6439ZM133.917 10.6702C132.11 8.73697 129.929 7.77051 127.376 7.77051C124.722 7.77051 122.674 8.69289 121.233 10.5375V8.41372C121.233 8.38393 121.221 8.35537 121.2 8.33432C121.179 8.31327 121.15 8.30145 121.121 8.30145H116.455C116.425 8.30145 116.396 8.31327 116.375 8.33432C116.354 8.35537 116.342 8.38393 116.342 8.41372V34.7227C116.342 34.7847 116.392 34.8351 116.455 34.8351H121.121C121.15 34.8351 121.179 34.8232 121.2 34.8022C121.221 34.7811 121.233 34.7525 121.233 34.7227V25.0176C122.674 26.8623 124.722 27.7847 127.376 27.7847C129.929 27.7847 132.11 26.8181 133.917 24.885C135.725 22.9518 136.628 20.5827 136.628 17.7777C136.628 14.9727 135.725 12.6036 133.917 10.6704V10.6702ZM122.712 21.644C123.698 22.6297 124.949 23.1225 126.466 23.1225C127.983 23.1225 129.24 22.6234 130.239 21.6252C131.237 20.6271 131.736 19.3446 131.736 17.7777C131.736 16.211 131.237 14.9285 130.239 13.9303C129.24 12.9322 127.983 12.4331 126.466 12.4331C124.949 12.4331 123.698 12.9322 122.712 13.9305C121.726 14.9285 121.233 16.211 121.233 17.7777C121.233 19.3446 121.726 20.6333 122.712 21.644Z" fill="#212067"/>
<path d="M139.654 27.2543C139.624 27.2543 139.595 27.2424 139.574 27.2213C139.553 27.2003 139.541 27.1717 139.541 27.1418V8.41405C139.541 8.35197 139.591 8.30162 139.654 8.30162H144.32C144.382 8.30162 144.432 8.35197 144.432 8.41405V27.1418C144.432 27.1717 144.42 27.2003 144.399 27.2213C144.378 27.2424 144.349 27.2543 144.32 27.2543H139.654ZM52.34 14.9156C51.6701 14.5998 51.3352 14.1892 51.3352 13.6837C51.3352 13.2036 51.5436 12.8245 51.9607 12.5465C52.3778 12.2687 52.9025 12.1297 53.5343 12.1297C54.7462 12.1297 55.6617 12.6018 56.2807 13.5462C56.3012 13.5783 56.3326 13.602 56.3692 13.6132C56.4058 13.6243 56.4451 13.6221 56.4802 13.6069L60.6071 11.7818C60.6216 11.7754 60.6346 11.7661 60.6452 11.7543C60.6558 11.7426 60.6638 11.7288 60.6687 11.7137C60.6735 11.6987 60.6751 11.6828 60.6734 11.6671C60.6716 11.6514 60.6665 11.6363 60.6585 11.6227C60.6111 11.5423 60.5628 11.4626 60.5133 11.3836C59.8059 10.2719 58.8908 9.44374 57.7434 8.81291C56.4794 8.11787 55.0764 7.77051 53.5343 7.77051C51.4868 7.77051 49.7741 8.30756 48.3964 9.3815C47.0187 10.4554 46.3298 11.9274 46.3298 13.7974C46.3298 15.0356 46.6649 16.0655 47.3347 16.8867C48.0047 17.708 48.8198 18.3081 49.7804 18.6872C50.7411 19.0663 51.7017 19.3821 52.6623 19.6348C53.6228 19.8876 54.4381 20.1719 55.1081 20.4877C55.7779 20.8035 56.1128 21.2143 56.1128 21.7197C56.1128 22.8063 55.2407 23.3496 53.4965 23.3496C51.8361 23.3496 50.6856 22.7361 50.0448 21.5095C49.9897 21.404 49.8638 21.3558 49.7548 21.4042L45.6395 23.227C45.6257 23.233 45.6133 23.2418 45.603 23.2527C45.5927 23.2637 45.5847 23.2765 45.5794 23.2906C45.5742 23.3047 45.5719 23.3197 45.5726 23.3347C45.5734 23.3496 45.5771 23.3643 45.5836 23.3779C45.6003 23.4122 45.6179 23.4482 45.6307 23.4738C47.0689 26.3476 49.6908 27.7846 53.4965 27.7846C55.6705 27.7846 57.4842 27.2602 58.9377 26.2114C60.3913 25.1627 61.1182 23.6655 61.1182 21.7197C61.1182 20.4309 60.7831 19.3568 60.1133 18.4977C59.4433 17.6385 58.6282 17.0257 57.6675 16.6593C56.7261 16.299 55.7638 15.9952 54.7858 15.7497C53.8251 15.5095 53.0098 15.2314 52.34 14.9156Z" fill="#212067"/>
<path d="M0 12.1333C0 6.41358 0 3.55382 1.78356 1.77691C3.56713 0 6.4376 0 12.1787 0H22.9523C28.6934 0 31.5639 0 33.3475 1.77691C35.131 3.55382 35.131 6.41358 35.131 12.1333V22.8667C35.131 28.5864 35.131 31.4462 33.3475 33.2231C31.5639 35 28.6934 35 22.9523 35H12.1787C6.4376 35 3.56713 35 1.78356 33.2231C0 31.4462 0 28.5864 0 22.8667V12.1333Z" fill="#4945FF"/>
<path fill-rule="evenodd" clip-rule="evenodd" d="M24.2428 10.6167H12.4153V16.625H18.4462V22.6333H24.477V10.85C24.477 10.7212 24.3721 10.6167 24.2428 10.6167Z" fill="white"/>
<path d="M18.2104 16.625H18.4437V16.8583H18.2104V16.625Z" fill="white"/>
<path d="M12.4147 16.625H18.2113C18.3408 16.625 18.4457 16.7295 18.4457 16.8583V22.6332H12.649C12.5196 22.6332 12.4147 22.5289 12.4147 22.4V16.625ZM18.4457 22.6332H24.4764L18.6455 28.4424C18.6292 28.4588 18.6083 28.4699 18.5856 28.4744C18.5629 28.4789 18.5393 28.4767 18.5179 28.4678C18.4965 28.459 18.4782 28.4441 18.4654 28.4249C18.4525 28.4057 18.4456 28.3831 18.4457 28.36V22.6332ZM12.4147 16.625H6.66682C6.64368 16.6249 6.62107 16.6181 6.60183 16.6053C6.58259 16.5925 6.5676 16.5743 6.55874 16.553C6.54987 16.5317 6.54754 16.5082 6.55203 16.4856C6.55652 16.463 6.56763 16.4422 6.58397 16.4259L12.4149 10.6167L12.4147 16.625Z" fill="#9593FF"/>
</svg>
