<svg width="173" height="39" viewBox="0 0 173 39" fill="none" xmlns="http://www.w3.org/2000/svg">
<path d="M165.55 16.3852C166.486 14.815 167.405 13.313 168.256 11.794C168.562 11.2478 168.937 11.0259 169.549 11.06C170.468 11.1112 171.388 11.06 172.307 11.0771C172.528 11.0771 172.732 11.1795 172.885 11.3331C172.97 11.4526 172.868 11.7598 172.766 11.9134C171.217 14.3029 169.652 16.6924 168.069 19.0648C167.898 19.2697 167.898 19.5598 168.069 19.7476C169.634 22.1029 171.2 24.4754 172.749 26.8478C172.834 26.9502 172.902 27.0697 172.953 27.1721C173.089 27.5134 172.919 27.8036 172.545 27.8206C171.422 27.8377 170.298 27.8548 169.175 27.8036C168.937 27.7865 168.63 27.5305 168.494 27.2915C167.575 25.8237 166.69 24.3217 165.805 22.8198C165.737 22.7003 165.669 22.5979 165.567 22.4443L163.592 25.7725C163.269 26.3016 162.946 26.8136 162.639 27.3598C162.469 27.7012 162.129 27.906 161.754 27.8718C160.733 27.8548 159.712 27.8718 158.691 27.8548C158.504 27.8548 158.231 27.7524 158.146 27.6158C158.078 27.4793 158.146 27.1891 158.265 27.0355C159.831 24.629 161.397 22.2395 162.98 19.85C163.167 19.5598 163.184 19.3721 162.98 19.0819C161.431 16.7436 159.882 14.4053 158.367 12.05C158.248 11.8622 158.146 11.5379 158.231 11.3502C158.299 11.2136 158.64 11.1283 158.861 11.1283C159.797 11.1112 160.733 11.1283 161.669 11.1112C162.18 11.0942 162.503 11.299 162.759 11.7427C163.592 13.1764 164.443 14.576 165.294 15.9926C165.363 16.095 165.448 16.2145 165.55 16.3852Z" fill="#4364FA"/>
<path d="M2.49862e-05 19.4745C-0.0169947 8.72176 8.66305 0.0342351 19.4365 9.94739e-05C30.21 -0.0340362 38.9411 8.72176 38.9241 19.4916C38.9241 30.2784 30.21 39.0172 19.4535 39.0001C8.71411 39.0001 2.49862e-05 30.2614 2.49862e-05 19.4745ZM9.78635 24.3559C9.87145 25.5336 9.90549 26.7283 10.0416 27.906C10.1778 29.0325 9.92251 28.7765 11.0458 28.8959C13.7519 29.2202 16.5091 29.169 19.1983 28.7253C22.1427 28.2303 24.8999 27.2574 27.3167 25.4482C29.8866 23.5196 31.3844 20.9765 31.3844 17.7165C31.3844 14.3541 29.9717 11.6404 27.3167 9.59222C24.0659 7.08325 19.6578 6.82723 16.2709 8.94364C14.1264 10.292 12.7308 12.3231 11.6926 14.576C10.314 17.6994 9.83741 20.9765 9.78635 24.3559Z" fill="#4264FA"/>
<path d="M51.9951 12.9032C54.8374 9.30186 60.1305 10.343 62.0367 13.8248C62.3601 13.3469 62.7175 12.8861 63.0749 12.4594C64.7428 10.6844 67.2277 10.1723 69.5594 11.1111C71.84 12.0327 73.3208 14.1321 73.3378 16.5216C73.3548 20.0717 73.3548 23.6047 73.3548 27.1548C73.3548 27.6839 73.1846 27.8375 72.674 27.8375H70.1381C69.5764 27.8375 69.4232 27.6669 69.4232 27.0865V17.7846C69.4232 16.624 69.0318 15.634 68.1297 14.883C66.2916 13.364 63.7727 14.1662 62.9387 16.5386C62.7685 16.9995 62.6834 17.4944 62.6834 17.9894C62.6664 20.9592 62.7005 23.929 62.7175 26.8988C62.7175 27.7181 62.6154 27.8205 61.8325 27.8205H59.5688C58.9561 27.8205 58.82 27.6839 58.82 27.0865V17.8699C58.82 16.9312 58.5817 16.0778 57.986 15.3439C56.3521 13.3811 53.4928 13.8078 52.4546 16.2143C52.1823 16.8458 52.0461 17.5115 52.0291 18.2113C51.978 21.1469 52.0121 24.0997 52.0121 27.0353C52.0121 27.7351 51.91 27.8375 51.1951 27.8375H48.7954C48.3018 27.8375 48.1316 27.6669 48.1316 27.1719V11.7084C48.1316 11.2305 48.3018 11.0769 48.7613 11.0769C49.6293 11.0769 50.5144 11.0769 51.3824 11.0769C51.8419 11.0769 51.9951 11.2476 52.0121 11.7084V12.2887C51.9951 12.2887 51.9951 12.6642 51.9951 12.9032Z" fill="#4364FA"/>
<path d="M123.377 13.0227C123.972 12.5789 124.5 12.1352 125.096 11.7767C128.602 9.69446 132.993 10.582 135.512 13.859C138.677 17.9553 137.758 24.0656 133.572 26.8988C130.508 28.9811 126.423 28.6739 123.717 26.1308L123.377 25.8065V27.0695C123.377 27.684 123.224 27.8376 122.645 27.8376H120.194C119.632 27.8376 119.462 27.6669 119.462 27.1037V18.0577V5.12028C119.462 4.4205 119.581 4.30103 120.279 4.30103H122.679C123.224 4.30103 123.377 4.45464 123.377 5.00081V12.5107C123.377 12.6813 123.377 12.852 123.377 13.0227ZM133.52 19.4743C133.469 19.0818 133.452 18.6892 133.367 18.2967C132.721 15.1391 129.402 13.347 126.508 14.5929C124.023 15.6682 122.764 18.638 123.683 21.2835C124.483 23.5535 126.525 24.8678 128.636 24.7483C131.461 24.5776 133.486 22.3076 133.52 19.4743ZM102.374 13.0398L102.664 12.7837C106.663 9.28483 112.331 10.1894 115.071 14.7636C117.505 18.8087 116.399 24.168 112.586 26.8476C109.608 28.9299 105.591 28.708 102.851 26.3185C102.698 26.182 102.545 26.0625 102.34 25.8748C102.323 26.1137 102.323 26.2673 102.323 26.4209V33.7942C102.323 34.5282 102.221 34.6306 101.489 34.6306H99.0556C98.579 34.6306 98.4258 34.4599 98.4258 33.9991V11.7255C98.4258 11.2647 98.596 11.094 99.0726 11.094C99.9406 11.094 100.792 11.094 101.66 11.094C102.17 11.094 102.323 11.2647 102.34 11.7938C102.34 12.1693 102.34 12.5619 102.357 12.9374C102.357 12.9715 102.357 13.0056 102.374 13.0398ZM102.306 19.4743C102.34 19.8328 102.374 20.2083 102.443 20.5667C102.902 23.2975 105.506 25.1409 108.229 24.68C108.91 24.5606 109.557 24.3045 110.135 23.929C112.399 22.4441 113.131 19.2183 111.752 16.7947C110.442 14.5076 107.821 13.603 105.472 14.5929C103.583 15.3951 102.34 17.3238 102.306 19.4743ZM90.0011 13.1251V11.6914C90.0011 11.2818 90.2053 11.094 90.5968 11.094H93.3029C93.6944 11.094 93.8986 11.2988 93.8986 11.6914V26.933C93.8986 27.7864 93.8135 27.8717 92.9795 27.8717H90.75C90.1373 27.8717 90.0011 27.7352 90.0011 27.1378V25.9089C89.95 25.926 89.899 25.943 89.8479 25.9772C85.8142 29.9198 79.3127 28.7251 76.7938 23.3487C74.8025 19.0988 76.4194 13.8932 80.402 11.6743C83.3634 10.0188 87.0397 10.4454 89.5586 12.7325C89.6947 12.8349 89.8139 12.9374 90.0011 13.1251ZM90.0011 19.3549C89.9841 19.2012 89.9671 18.9111 89.933 18.6209C89.5926 15.7023 86.6822 13.6542 83.8229 14.3198C80.8956 15.0026 79.1595 18.2454 80.1637 21.1982C80.8955 23.3658 82.989 24.8848 85.0654 24.7483C87.8736 24.5776 89.967 22.3588 90.0011 19.3549ZM157.161 19.4573C157.178 24.2875 153.161 28.2643 148.243 28.2813C143.324 28.2984 139.256 24.3557 139.239 19.4914C139.222 14.6271 143.239 10.6503 148.174 10.6503C153.11 10.6503 157.144 14.5929 157.161 19.4573ZM153.28 19.4573C153.212 19.0135 153.178 18.5527 153.059 18.126C152.395 15.4463 149.74 13.7225 147.187 14.3028C144.141 14.9855 142.388 18.2113 143.409 21.2323C144.158 23.3999 146.234 24.9019 148.328 24.7654C151.102 24.5776 153.28 22.2564 153.28 19.4573Z" fill="#4365FA"/>
<path d="M27.5201 17.2386C26.2777 17.8531 25.1203 18.3992 23.98 18.9795C23.7417 19.1161 23.5545 19.3038 23.4354 19.5428C22.8567 20.6863 22.2951 21.8469 21.7164 23.0587C21.5292 22.6662 21.359 22.3419 21.1888 22.0005C20.9335 21.4714 20.6271 20.9765 20.4399 20.4132C20.1165 19.4233 19.4357 18.843 18.4826 18.4846C17.6317 18.1603 16.8317 17.6994 15.9297 17.2727C16.0829 17.1874 16.185 17.1021 16.2871 17.0679C17.3083 16.573 18.3295 16.0609 19.3506 15.583C19.657 15.4465 19.8953 15.2075 20.0314 14.9003C20.559 13.7738 21.1207 12.6474 21.6994 11.4355C22.1249 12.2889 22.5674 13.057 22.8737 13.8762C23.2141 14.9174 24.0311 15.7366 25.0863 16.078C25.8862 16.3681 26.6521 16.8119 27.5201 17.2386Z" fill="#4365FA"/>
</svg>
