<svg width="134" height="34" viewBox="0 0 134 34" fill="none" xmlns="http://www.w3.org/2000/svg">
<path fill-rule="evenodd" clip-rule="evenodd" d="M42.8691 26.7713L44.5415 22.8746C46.3478 24.229 48.7544 24.9331 51.1289 24.9331C52.8816 24.9331 53.9911 24.2559 53.9911 23.2294C53.9643 20.3593 43.4909 22.6059 43.4105 15.4093C43.3837 11.7545 46.6211 8.93818 51.2093 8.93818C53.9375 8.93818 56.6604 9.61539 58.6061 11.1579L57.041 15.1351C55.2615 13.9957 53.0478 13.1842 50.9413 13.1842C49.5102 13.1842 48.5668 13.8614 48.5668 14.7267C48.5936 17.543 59.1475 16.0005 59.2547 22.8746C59.2547 26.61 56.0976 29.2382 51.5631 29.2382C48.2399 29.2328 45.19 28.4481 42.8691 26.7713ZM107.087 21.4665C106.251 22.9284 104.686 23.9281 102.874 23.9281C100.2 23.9281 98.045 21.7621 98.045 19.0855C98.045 16.4089 100.205 14.243 102.874 14.243C104.681 14.243 106.251 15.2426 107.087 16.7045L111.702 14.1355C109.976 11.0504 106.653 8.93818 102.874 8.93818C97.2839 8.93818 92.7493 13.4851 92.7493 19.0909C92.7493 24.6966 97.2839 29.2436 102.874 29.2436C106.68 29.2436 109.976 27.1582 111.702 24.0463L107.087 21.4665ZM61.5756 0.516113H67.3536V28.8566H61.5756V0.516113ZM113.97 0.516113V28.8566H119.748V20.3539L126.603 28.8566H134L125.279 18.7577L133.351 9.33591H126.276L119.742 17.156V0.516113H113.97Z" fill="black"/>
<path d="M84.5226 21.5203C83.6864 22.9016 81.9605 23.9281 80.0148 23.9281C77.3402 23.9281 75.1854 21.7621 75.1854 19.0856C75.1854 16.409 77.3455 14.243 80.0148 14.243C81.9605 14.243 83.6864 15.3233 84.5226 16.7315V21.5203ZM84.5226 9.34133V11.6417C83.5792 10.0454 81.2315 8.93286 78.7713 8.93286C73.6953 8.93286 69.7021 13.4261 69.7021 19.0587C69.7021 24.6913 73.6953 29.2383 78.7713 29.2383C81.2262 29.2383 83.5738 28.1311 84.5226 26.5295V28.8298H90.3006V9.34133H84.5226Z" fill="black"/>
<path fill-rule="evenodd" clip-rule="evenodd" d="M7.15591 21.4932C7.15591 23.4711 5.56399 25.0673 3.5915 25.0673C1.61902 25.0673 0.0270996 23.4657 0.0270996 21.4932C0.0270996 19.5207 1.61902 17.9191 3.5915 17.9191H7.15591V21.4932ZM8.93543 21.4932C8.93543 19.5153 10.5274 17.9191 12.4998 17.9191C14.4723 17.9191 16.0642 19.5153 16.0642 21.4932V30.4259C16.0642 32.4037 14.4723 34 12.4998 34C10.5274 34 8.93543 32.4037 8.93543 30.4259V21.4932Z" fill="#E01E5A"/>
<path fill-rule="evenodd" clip-rule="evenodd" d="M12.4995 7.14828C10.527 7.14828 8.93513 5.55201 8.93513 3.57414C8.93513 1.59627 10.527 0 12.4995 0C14.472 0 16.0639 1.59627 16.0639 3.57414V7.14828H12.4995ZM12.4995 8.95953C14.472 8.95953 16.0639 10.5558 16.0639 12.5337C16.0639 14.5115 14.472 16.1078 12.4995 16.1078H3.5644C1.59192 16.1078 0 14.5062 0 12.5337C0 10.5612 1.59192 8.95953 3.5644 8.95953H12.4995Z" fill="#36C5F0"/>
<path fill-rule="evenodd" clip-rule="evenodd" d="M26.7794 12.5337C26.7794 10.5558 28.3713 8.95953 30.3438 8.95953C32.3163 8.95953 33.9082 10.5558 33.9082 12.5337C33.9082 14.5115 32.3163 16.1078 30.3438 16.1078H26.7794V12.5337ZM24.9999 12.5337C24.9999 14.5115 23.408 16.1078 21.4355 16.1078C19.463 16.1078 17.8711 14.5115 17.8711 12.5337V3.57414C17.8711 1.59627 19.463 0 21.4355 0C23.408 0 24.9999 1.59627 24.9999 3.57414V12.5337Z" fill="#2EB67D"/>
<path fill-rule="evenodd" clip-rule="evenodd" d="M21.4355 26.8518C23.408 26.8518 24.9999 28.4481 24.9999 30.426C24.9999 32.4039 23.408 34.0001 21.4355 34.0001C19.463 34.0001 17.8711 32.4039 17.8711 30.426V26.8518H21.4355ZM21.4355 25.0675C19.463 25.0675 17.8711 23.4712 17.8711 21.4933C17.8711 19.5155 19.463 17.9192 21.4355 17.9192H30.3706C32.3431 17.9192 33.935 19.5155 33.935 21.4933C33.935 23.4712 32.3431 25.0675 30.3706 25.0675H21.4355Z" fill="#ECB22E"/>
</svg>
