<svg width="143" height="44" viewBox="0 0 143 44" fill="none" xmlns="http://www.w3.org/2000/svg">
<path d="M22.2211 0C9.94848 0 0 9.84894 0 21.9992C0 34.1486 9.94848 43.9979 22.2211 43.9979C34.4937 43.9979 44.4422 34.1486 44.4422 21.9992C44.4422 9.84894 34.4937 0 22.2211 0ZM32.3431 31.7901C32.2411 31.9499 32.1081 32.0881 31.9519 32.1969C31.7957 32.3057 31.6194 32.3828 31.433 32.424C31.2466 32.4651 31.0539 32.4694 30.8658 32.4366C30.6777 32.4038 30.4981 32.3346 30.3371 32.2329C26.5783 29.8662 22.3016 29.1863 18.6944 29.1879C14.8343 29.1855 11.7822 29.9674 11.1407 30.1482C11.0489 30.1737 11.0165 30.184 11.0165 30.184H11.0173C10.6489 30.2965 10.2505 30.2594 9.9097 30.0811C9.56888 29.9027 9.3136 29.5976 9.2 29.2329C9.0864 28.8682 9.12379 28.4738 9.30395 28.1364C9.48411 27.799 9.79228 27.5463 10.1607 27.4338C10.2487 27.4091 13.8373 26.3123 18.6948 26.3103C22.6542 26.3119 27.4964 27.042 31.8963 29.805C32.2214 30.0097 32.451 30.3338 32.5348 30.706C32.6185 31.0782 32.5496 31.4682 32.3431 31.7901ZM35.2287 25.7043C35.1109 25.902 34.9549 26.0746 34.7696 26.2125C34.5843 26.3504 34.3734 26.4508 34.1489 26.5079C33.9244 26.565 33.6907 26.5778 33.4613 26.5454C33.2318 26.513 33.011 26.4362 32.8115 26.3193C27.8477 23.4133 22.7335 22.624 18.6408 22.6232C14.4967 22.622 11.4301 23.4409 10.8085 23.6234C10.7196 23.6489 10.6955 23.6571 10.6955 23.6571C10.2523 23.7924 9.77313 23.7496 9.36157 23.5379C8.95 23.3262 8.63912 22.9627 8.49613 22.5259C8.35314 22.0891 8.38952 21.6142 8.59743 21.2038C8.80533 20.7933 9.16804 20.4804 9.60715 20.3326C9.72508 20.2972 13.3726 19.1318 18.6404 19.1293C23.1807 19.1285 28.9589 20.0058 34.6075 23.3114C35.0104 23.5472 35.3022 23.9317 35.4187 24.3805C35.5352 24.8292 35.4668 25.3054 35.2287 25.7043ZM36.589 19.9244C36.2361 19.9244 35.8786 19.8368 35.5497 19.6531C30.0219 16.5592 24.1503 15.6926 19.3551 15.6934C14.3285 15.6918 10.5261 16.65 9.74335 16.8659C9.63123 16.8971 9.59801 16.9074 9.59801 16.9074C9.33204 16.9878 9.05267 17.0155 8.77588 16.9889C8.49909 16.9624 8.23029 16.8821 7.98484 16.7527C7.7394 16.6233 7.52211 16.4472 7.3454 16.2347C7.16869 16.0221 7.03602 15.7771 6.95497 15.5138C6.87377 15.2504 6.84577 14.9738 6.87257 14.6997C6.89937 14.4256 6.98044 14.1595 7.11116 13.9164C7.24188 13.6733 7.41969 13.4582 7.63442 13.2831C7.84915 13.1081 8.09661 12.9767 8.36265 12.8964C8.49595 12.8589 12.9964 11.5044 19.3551 11.5007C24.6495 11.5015 31.2689 12.4474 37.6326 16.0022C38.0405 16.2298 38.3607 16.5849 38.5431 17.0119C38.7255 17.439 38.7597 17.9138 38.6404 18.3621C38.5211 18.8105 38.2551 19.207 37.8839 19.4897C37.5127 19.7724 37.0573 19.9252 36.589 19.9244ZM77.2193 16.4605C73.2636 16.4605 70.212 20.0494 70.212 24.4768C70.212 28.9039 72.963 32.4931 77.2193 32.4931C81.1749 32.4931 84.3823 28.9039 84.3823 24.4768C84.3823 20.0494 81.1753 16.4605 77.2193 16.4605ZM76.3111 28.9988C73.9662 28.9988 72.1844 26.9742 72.1844 24.4768C72.1844 21.9794 73.9658 19.9548 76.3111 19.9548C78.8445 19.9548 80.4378 21.9794 80.4378 24.4768C80.4378 26.9742 78.7602 28.9988 76.3111 28.9988Z" fill="#56AF5A"/>
<path d="M68.3701 16.8201H72.315V19.775L71.4326 22.6527V26.6608L72.3407 29.975V36.7325H68.344L68.3701 16.8201ZM93.7259 16.4431C89.1777 16.4431 85.4904 20.0319 85.4904 24.4594C85.4904 28.8869 89.1777 32.4757 93.7259 32.4757C98.2741 32.4757 101.962 28.8869 101.962 24.4594C101.962 20.0319 98.2746 16.4431 93.7259 16.4431ZM93.7089 29.0842C91.2914 29.0842 89.3314 27.0287 89.3314 24.4935C89.3314 21.9587 91.2914 19.9033 93.7089 19.9033C96.1261 19.9033 98.086 21.9587 98.086 24.4935C98.086 27.0287 96.1265 29.0842 93.7089 29.0842ZM113.658 16.786H117.672V32.236H113.658V16.786Z" fill="#56AF5A"/>
<path d="M115.732 14.8672C117.089 14.8672 118.189 13.7784 118.189 12.4352C118.189 11.092 117.089 10.0032 115.732 10.0032C114.376 10.0032 113.276 11.092 113.276 12.4352C113.276 13.7784 114.376 14.8672 115.732 14.8672Z" fill="#56AF5A"/>
<path d="M125.109 16.0323V32.1849H121.095V16.464C121.095 16.464 120.739 10.7802 126.113 10.8933C126.113 10.8933 127.704 10.9274 128.985 11.4071V14.723C128.985 14.723 127.982 14.3308 126.632 14.3193C126.632 14.3193 125.088 14.27 125.109 16.0323ZM108.101 27.3341V12.7424H104.088V27.9034C104.088 27.9034 103.787 32.7436 109.105 32.4213C109.105 32.4213 110.642 32.4213 111.977 31.5843V28.368C111.977 28.368 110.975 28.9394 109.624 28.9505C109.624 28.9505 108.044 28.992 108.101 27.3341Z" fill="#56AF5A"/>
<path d="M138.886 16.786L135.18 27.4057L131.056 16.786H119.261V20.2116H128.259L133.207 31.7908C132.794 33.538 131.373 33.4352 131.373 33.4352C130.369 33.4352 129.262 32.7499 129.262 32.7499L127.913 35.6275C128.997 36.6261 131.65 36.758 131.65 36.758C135.595 36.758 136.737 32.9213 136.737 32.9213L143 16.786H138.886ZM102.214 16.795H112.086V20.2186H102.214V16.795ZM64.3455 17.2998C64.3455 17.2998 61.7502 15.2444 58.9818 15.2444C58.9818 15.2444 56.1797 15.1009 56.0406 17.1971C56.0406 17.1971 55.8977 18.9656 57.9316 19.472C57.9316 19.472 62.9183 20.9421 64.1711 21.5444C64.1711 21.5444 67.2277 22.8118 67.0446 26.7208C67.0446 26.7208 67.0662 32.4058 59.6046 32.4761C59.6046 32.4761 54.4834 32.6134 51.0576 29.0164L53.4798 26.3097C53.4798 26.3097 56.1789 28.9136 59.8123 28.9136C59.8123 28.9136 62.7115 29.0094 63.0304 26.8581C63.0304 26.8581 63.3929 24.9515 60.6428 24.3229C60.6428 24.3229 56.3865 23.2611 55.0025 22.5758C55.0025 22.5758 51.8379 21.4473 51.9575 17.403C51.9575 17.403 52.1057 11.5852 59.2243 11.6819C59.2243 11.6819 63.3444 11.5487 66.4911 14.354L64.3455 17.2998Z" fill="#56AF5A"/>
</svg>
