<svg width="164" height="30" viewBox="0 0 164 30" fill="none" xmlns="http://www.w3.org/2000/svg">
<path d="M54.7111 23.3626C50.7364 23.3626 47.5147 20.0783 47.5147 16.0261C47.5147 11.9745 50.7364 8.68968 54.7115 8.68968C58.6862 8.68968 61.9075 11.9745 61.9075 16.0261C61.9075 20.0783 58.6857 23.3626 54.7111 23.3626ZM61.9306 24.2931C61.9306 24.9651 63.0849 26.8523 64.4993 26.8523H65.4152C65.7705 26.8523 66.0607 26.5623 66.0607 26.2085V6.13093H66.0574C66.0485 5.96685 65.977 5.81237 65.8576 5.69915C65.7382 5.58592 65.58 5.52251 65.4152 5.52191H62.577C62.2335 5.52191 61.9532 5.79306 61.9339 6.13093H61.9306V7.76251C60.192 5.62623 57.4499 4.73948 54.7002 4.73948C48.4504 4.73948 43.3845 9.79259 43.3845 16.0266C43.3845 22.2607 48.4504 27.3138 54.7002 27.3138C57.4499 27.3138 60.4464 26.2498 61.9306 24.2907V24.294V24.2931ZM72.8425 21.4181C74.737 22.7268 76.8054 23.3626 78.7927 23.3626C80.6867 23.3626 82.6434 22.3833 82.6434 20.6794C82.6434 18.4049 78.3781 18.0506 75.6986 17.1422C73.0178 16.2339 70.7091 14.3556 70.7091 11.3142C70.7091 6.66101 74.8666 4.73901 78.747 4.73901C81.2055 4.73901 83.7417 5.54728 85.3865 6.70612C85.9533 7.13375 85.6079 7.62576 85.6079 7.62576L84.038 9.86167C83.8618 10.1136 83.4962 10.3147 83.1103 10.0586C82.0526 9.3612 80.8747 8.68921 78.7465 8.68921C76.1123 8.68921 74.9537 9.7799 74.9537 11.1314C74.9537 12.7526 76.8068 13.2621 78.9774 13.8147C82.7607 14.8311 86.8881 16.0543 86.8881 20.6798C86.8881 24.7799 83.0425 27.3138 78.7927 27.3138C75.5724 27.3138 72.8302 26.3979 70.5305 24.7151C70.0518 24.2367 70.3864 23.7926 70.3864 23.7926L71.9482 21.568C72.2663 21.1516 72.6667 21.2973 72.8425 21.4181ZM108.174 24.2935C108.174 24.9651 109.328 26.8523 110.742 26.8523H111.659C112.014 26.8523 112.304 26.5623 112.304 26.2085V6.13093H112.301C112.292 5.96693 112.22 5.81258 112.101 5.6994C111.981 5.58622 111.823 5.52273 111.659 5.52191H108.82C108.476 5.52191 108.196 5.79306 108.178 6.13093H108.174V7.76251C106.435 5.62623 103.693 4.73948 100.944 4.73948C94.6941 4.73948 89.6273 9.79259 89.6273 16.0261C89.6273 22.2597 94.6941 27.3133 100.944 27.3133C103.693 27.3133 106.69 26.2494 108.174 24.2903V24.2935H108.174ZM100.955 23.3631C96.9797 23.3631 93.758 20.0783 93.758 16.0261C93.758 11.9745 96.9797 8.68968 100.955 8.68968C104.929 8.68968 108.151 11.9745 108.151 16.0261C108.151 20.0783 104.929 23.3626 100.955 23.3626V23.3631ZM137.735 24.9834L137.734 14.5948C137.734 8.73855 134.029 4.78741 128.122 4.78741C125.303 4.78741 122.996 6.41383 122.179 7.81092V7.79118L122.175 7.80716C122.173 6.39362 121.023 5.57031 119.606 5.57031H118.695C118.339 5.57031 118.049 5.86073 118.049 6.21505V26.2931H118.053C118.071 26.6314 118.352 26.9026 118.695 26.9026H121.533C121.576 26.9026 121.619 26.8974 121.66 26.8899C121.679 26.8857 121.696 26.8781 121.715 26.873C121.736 26.8669 121.758 26.8617 121.778 26.8532C121.804 26.8429 121.826 26.8288 121.85 26.8156C121.861 26.8086 121.874 26.8039 121.885 26.7968C121.913 26.7778 121.939 26.7567 121.964 26.7339C121.968 26.7296 121.973 26.7268 121.977 26.7231C122.096 26.6103 122.167 26.4564 122.175 26.2931H122.179V14.4336C122.179 11.2884 124.736 8.73808 127.89 8.73808C131.043 8.73808 133.6 11.2884 133.6 14.4336L133.602 24.3471L133.603 24.3434C133.603 24.3523 133.605 24.3617 133.605 24.3706V26.2931H133.609C133.627 26.6314 133.907 26.9026 134.251 26.9026H137.089C137.133 26.9026 137.175 26.8974 137.216 26.8899C137.233 26.8861 137.249 26.8791 137.265 26.8753C137.288 26.8683 137.312 26.8622 137.335 26.8532C137.358 26.8438 137.379 26.8302 137.4 26.818C137.414 26.8109 137.428 26.8053 137.441 26.7968C137.467 26.779 137.491 26.7588 137.515 26.7381C137.521 26.7334 137.528 26.7287 137.534 26.7226C137.56 26.6972 137.584 26.669 137.606 26.6399C137.681 26.5396 137.724 26.4197 137.731 26.295L137.732 26.2931H137.735L137.735 24.9834ZM159.87 24.2935C159.87 24.9651 161.023 26.8523 162.438 26.8523H163.354C163.709 26.8523 164 26.5623 164 26.2085V6.13093H163.997C163.987 5.96689 163.916 5.81254 163.796 5.69937C163.677 5.5862 163.519 5.52273 163.354 5.52191H160.516C160.351 5.52239 160.193 5.58574 160.074 5.69898C159.954 5.81223 159.882 5.96677 159.874 6.13093H159.87V7.76251C158.13 5.62623 155.389 4.73948 152.639 4.73948C146.39 4.73948 141.323 9.79259 141.323 16.0261C141.323 22.2597 146.39 27.3133 152.639 27.3133C155.389 27.3133 158.385 26.2494 159.868 24.2903L159.87 24.2935ZM152.651 23.3631C148.676 23.3631 145.454 20.0783 145.454 16.0261C145.454 11.9745 148.676 8.68968 152.651 8.68968C156.624 8.68968 159.846 11.9745 159.846 16.0261C159.846 20.0783 156.624 23.3626 152.651 23.3626V23.3631Z" fill="#283343"/>
<path d="M25.453 15.8822C21.5456 15.8822 18.3787 19.0423 18.3787 22.9406C18.3787 26.8392 21.5456 30 25.453 30C29.3597 30 32.5266 26.8392 32.5266 22.9406C32.5266 19.0423 29.3597 15.8822 25.453 15.8822ZM7.07399 15.8825C3.1673 15.8828 0 19.0423 0 22.9409C0 26.8392 3.1673 29.9997 7.07399 29.9997C10.981 29.9997 14.1483 26.8392 14.1483 22.9409C14.1483 19.0423 10.9814 15.8825 7.07399 15.8825ZM23.3373 7.05874C23.3373 10.957 20.1703 14.1182 16.2637 14.1182C12.3563 14.1182 9.18933 10.957 9.18933 7.05874C9.18933 3.16047 12.3563 0 16.2637 0C20.1703 0 23.337 3.16047 23.337 7.05874H23.3373Z" fill="url(#paint0_radial_4430_1908)"/>
<defs>
<radialGradient id="paint0_radial_4430_1908" cx="0" cy="0" r="1" gradientUnits="userSpaceOnUse" gradientTransform="translate(16.2634 1639.56) scale(2155.31 1987.89)">
<stop stop-color="#FFB900"/>
<stop offset="0.6" stop-color="#F95D8F"/>
<stop offset="0.9991" stop-color="#F95353"/>
</radialGradient>
</defs>
</svg>
