<svg width="73" height="77" viewBox="0 0 73 77" fill="none" xmlns="http://www.w3.org/2000/svg">
<path d="M19.6395 62.9928C18.1433 61.8956 16.2481 62.3943 14.1534 64.4226C11.2607 67.1823 11.161 68.2463 13.7544 68.3128C16.0819 68.3793 20.9695 63.9571 19.6395 62.9928Z" fill="white"/>
<path d="M19.4733 57.3737C19.4733 56.5092 16.3811 55.6115 15.1509 56.1434C13.0894 57.0079 1.48539 66.1183 0.654149 66.4508C-1.37407 67.2488 1.75138 68.878 4.07885 68.2463C6.20682 67.6478 19.4733 58.3047 19.4733 57.3737Z" fill="white"/>
<path d="M9.89771 23.4259C12.3914 23.4592 13.0563 22.5947 11.4936 21.298C8.46791 18.7377 6.10726 17.8733 4.24529 18.6713C2.05082 19.569 6.53951 23.3594 9.89771 23.4259Z" fill="white"/>
<path d="M48.7662 26.9504C50.5616 26.9836 53.9198 24.8889 53.7203 23.8582C53.3546 21.9962 49.6306 21.9962 47.6357 23.8582C45.4745 25.8531 45.8402 26.9171 48.7662 26.9504Z" fill="white"/>
<path d="M17.2789 22.4617C20.5373 23.0602 20.3046 21.4643 16.2815 15.7453C8.86682 5.20524 6.37307 2.54528 4.61085 3.27677C2.25013 4.20776 13.8875 21.7968 17.2789 22.4617Z" fill="white"/>
<path d="M67.8511 17.441C66.2219 18.1392 54.0858 26.1856 51.0601 28.5464C50.3951 29.0784 52.6893 30.0093 54.3851 29.8763C56.0808 29.7433 56.7125 29.4108 63.5287 24.9222C67.5519 22.2622 71.2758 19.8349 71.7745 19.5356C74.1685 18.0394 70.7106 16.2108 67.8511 17.441Z" fill="white"/>
<path d="M54.6179 60.2996C52.8224 58.6371 50.3287 57.7062 49.6305 58.4376C49.1982 58.8699 50.1292 59.9339 51.8249 60.8981C54.5514 62.4608 56.5131 62.0286 54.6179 60.2996Z" fill="white"/>
<path d="M49.9962 42.3116C51.7917 41.3807 51.7584 41.1147 49.7302 39.1197C43.5126 33.035 38.3256 19.0037 37.1619 5.23845C36.7297 0.28427 32.108 -4.40391 29.6475 7.39966C26.5221 22.2954 19.1408 37.4572 14.2531 39.0199C10.9614 40.0839 11.3272 42.3116 14.7851 42.3116C19.9054 42.3116 23.0309 46.9333 25.0258 57.5732C26.3226 64.4891 28.517 75.1954 28.7165 75.7606C29.2153 77.0906 33.7704 79.2518 34.9674 70.4075C36.6299 57.9057 43.1468 45.8028 49.9962 42.3116ZM44.244 40.7822C38.7579 44.6724 33.3382 52.22 31.9417 57.9722C31.6092 59.3021 31.2435 59.1026 30.9775 57.4734C29.6808 49.161 26.921 44.1736 22.2661 41.5469L20.4706 40.5162C25.2586 35.429 27.4198 33.6003 32.9725 18.0064C33.2052 17.3414 33.2385 17.4411 34.4354 21.4643C36.6632 29.1116 39.4561 34.5645 43.0471 38.3217C44.8425 40.2502 44.8758 40.3499 44.244 40.7822Z" fill="white"/>
<path d="M43.6458 60.8981C42.6815 61.4633 42.9475 61.9953 45.7737 65.5863C50.7279 71.8704 53.3546 73.7324 54.9839 72.1032C55.7486 71.3385 55.3496 70.6402 51.7254 66.1848C47.2367 60.6654 45.7405 59.7011 43.6458 60.8981Z" fill="white"/>
</svg>
