<?xml version="1.0" encoding="UTF-8"?>
<svg id="Camada_1" xmlns="http://www.w3.org/2000/svg" version="1.1" xmlns:xlink="http://www.w3.org/1999/xlink" viewBox="0 0 1920 640.53">
  <!-- Generator: Adobe Illustrator 30.3.0, SVG Export Plug-In . SVG Version: 2.1.3 Build 182)  -->
  <defs>
    <style>
      .st0 {
        fill: #546061;
        font-family: Montserrat-Bold, Montserrat;
        font-size: 382.63px;
        font-weight: 700;
      }

      .st1 {
        fill: url(#Gradiente_sem_nome_121);
      }

      .st2 {
        fill: url(#Gradiente_sem_nome_80);
      }

      .st3 {
        fill: url(#Gradiente_sem_nome_18);
      }
    </style>
    <radialGradient id="Gradiente_sem_nome_121" data-name="Gradiente sem nome 121" cx="1266.48" cy="-231.78" fx="1266.48" fy="-231.78" r="316.13" gradientTransform="translate(1482.89 101.14) rotate(-180)" gradientUnits="userSpaceOnUse">
      <stop offset="0" stop-color="#375d61"/>
      <stop offset=".33" stop-color="#385f63"/>
      <stop offset=".54" stop-color="#3d676c"/>
      <stop offset=".71" stop-color="#45757a"/>
      <stop offset=".85" stop-color="#50888e"/>
      <stop offset=".99" stop-color="#5fa1a8"/>
      <stop offset="1" stop-color="#61a4ab"/>
    </radialGradient>
    <radialGradient id="Gradiente_sem_nome_80" data-name="Gradiente sem nome 80" cx="1238.93" cy="-254.39" fx="1238.93" fy="-254.39" r="273.62" gradientTransform="translate(1482.89 101.14) rotate(-180)" gradientUnits="userSpaceOnUse">
      <stop offset="0" stop-color="aqua"/>
      <stop offset=".08" stop-color="#06ebeb"/>
      <stop offset=".25" stop-color="#17b8ba"/>
      <stop offset=".48" stop-color="#33686b"/>
      <stop offset=".51" stop-color="#375d61"/>
      <stop offset=".67" stop-color="#385f63"/>
      <stop offset=".77" stop-color="#3d676c"/>
      <stop offset=".86" stop-color="#45757a"/>
      <stop offset=".93" stop-color="#50888e"/>
      <stop offset="1" stop-color="#5fa1a8"/>
      <stop offset="1" stop-color="#61a4ab"/>
    </radialGradient>
    <linearGradient id="Gradiente_sem_nome_18" data-name="Gradiente sem nome 18" x1="520.08" y1="131.73" x2="242.04" y2="398.53" gradientUnits="userSpaceOnUse">
      <stop offset="0" stop-color="#3bffff"/>
      <stop offset=".02" stop-color="#3af5f5"/>
      <stop offset=".13" stop-color="#39ccce"/>
      <stop offset=".24" stop-color="#38aaac"/>
      <stop offset=".35" stop-color="#388e90"/>
      <stop offset=".48" stop-color="#37787b"/>
      <stop offset=".61" stop-color="#37686c"/>
      <stop offset=".77" stop-color="#375f63"/>
      <stop offset="1" stop-color="#375d61"/>
    </linearGradient>
  </defs>
  <text class="st0" transform="translate(685.61 436.97)"><tspan x="0" y="0">rulees</tspan></text>
  <g>
    <path class="st1" d="M327.61,123.06c-85.06,0-154.01,68.95-154.01,154.01s68.95,154.01,154.01,154.01,154.01-68.95,154.01-154.01-68.95-154.01-154.01-154.01ZM349.53,396.99c-66.23,0-119.92-53.69-119.92-119.92s53.69-119.92,119.92-119.92,119.92,53.69,119.92,119.92-53.69,119.92-119.92,119.92Z"/>
    <path class="st2" d="M97.44,328.4c0,115.78,93.86,209.64,209.65,209.64s209.65-93.86,209.65-209.64-93.86-209.65-209.65-209.65-209.65,93.86-209.65,209.65ZM470.33,298.57c0,90.16-73.09,163.24-163.24,163.24s-163.24-73.09-163.24-163.24,73.09-163.24,163.24-163.24,163.24,73.09,163.24,163.24Z"/>
    <path class="st3" d="M315.13,603.22c151.78,0,274.82-123.04,274.82-274.82S466.91,53.58,315.13,53.58,40.31,176.62,40.31,328.4s123.04,274.82,274.82,274.82ZM276.02,114.41c118.18,0,213.99,95.81,213.99,213.99s-95.81,213.99-213.99,213.99S62.03,446.58,62.03,328.4s95.81-213.99,213.99-213.99Z"/>
  </g>
</svg>