<?xml version="1.0" encoding="UTF-8"?>
<svg id="Camada_1" xmlns="http://www.w3.org/2000/svg" version="1.1" viewBox="0 0 1920 640.53">
  <!-- Generator: Adobe Illustrator 30.3.0, SVG Export Plug-In . SVG Version: 2.1.3 Build 182)  -->
  <defs>
    <style>
      .st0, .st1 {
        fill: #fff;
      }

      .st1 {
        font-family: Montserrat-Bold, Montserrat;
        font-size: 382.63px;
        font-weight: 700;
      }
    </style>
  </defs>
  <text class="st1" transform="translate(685.61 436.97)"><tspan x="0" y="0">rulees</tspan></text>
  <g>
    <path class="st0" d="M327.61,123.06c-85.06,0-154.01,68.95-154.01,154.01s68.95,154.01,154.01,154.01,154.01-68.95,154.01-154.01-68.95-154.01-154.01-154.01ZM349.53,396.99c-66.23,0-119.92-53.69-119.92-119.92s53.69-119.92,119.92-119.92,119.92,53.69,119.92,119.92-53.69,119.92-119.92,119.92Z"/>
    <path class="st0" d="M97.44,328.4c0,115.78,93.86,209.64,209.65,209.64s209.65-93.86,209.65-209.64-93.86-209.65-209.65-209.65-209.65,93.86-209.65,209.65ZM470.33,298.57c0,90.16-73.09,163.24-163.24,163.24s-163.24-73.09-163.24-163.24,73.09-163.24,163.24-163.24,163.24,73.09,163.24,163.24Z"/>
    <path class="st0" d="M315.13,603.22c151.78,0,274.82-123.04,274.82-274.82S466.91,53.58,315.13,53.58,40.31,176.62,40.31,328.4s123.04,274.82,274.82,274.82ZM276.02,114.41c118.18,0,213.99,95.81,213.99,213.99s-95.81,213.99-213.99,213.99S62.03,446.58,62.03,328.4s95.81-213.99,213.99-213.99Z"/>
  </g>
</svg>