<?xml version="1.0" encoding="UTF-8"?>
<svg id="Camada_1" xmlns="http://www.w3.org/2000/svg" version="1.1" xmlns:xlink="http://www.w3.org/1999/xlink" viewBox="0 0 1080 1080">
  <!-- Generator: Adobe Illustrator 30.3.0, SVG Export Plug-In . SVG Version: 2.1.3 Build 182)  -->
  <defs>
    <style>
      .st0 {
        fill: url(#Gradiente_sem_nome_121);
      }

      .st1 {
        fill: url(#Gradiente_sem_nome_80);
      }

      .st2 {
        fill: url(#Gradiente_sem_nome_18);
      }
    </style>
    <radialGradient id="Gradiente_sem_nome_121" data-name="Gradiente sem nome 121" cx="291.59" cy="-20.77" fx="291.59" fy="-20.77" r="599.5" gradientTransform="translate(642.89 530.09) rotate(-180)" gradientUnits="userSpaceOnUse">
      <stop offset="0" stop-color="#375d61"/>
      <stop offset=".33" stop-color="#385f63"/>
      <stop offset=".54" stop-color="#3d676c"/>
      <stop offset=".71" stop-color="#45757a"/>
      <stop offset=".85" stop-color="#50888e"/>
      <stop offset=".99" stop-color="#5fa1a8"/>
      <stop offset="1" stop-color="#61a4ab"/>
    </radialGradient>
    <radialGradient id="Gradiente_sem_nome_80" data-name="Gradiente sem nome 80" cx="239.33" cy="-63.65" fx="239.33" fy="-63.65" r="518.88" gradientTransform="translate(642.89 530.09) rotate(-180)" gradientUnits="userSpaceOnUse">
      <stop offset="0" stop-color="aqua"/>
      <stop offset=".08" stop-color="#06ebeb"/>
      <stop offset=".25" stop-color="#17b8ba"/>
      <stop offset=".48" stop-color="#33686b"/>
      <stop offset=".51" stop-color="#375d61"/>
      <stop offset=".67" stop-color="#385f63"/>
      <stop offset=".77" stop-color="#3d676c"/>
      <stop offset=".86" stop-color="#45757a"/>
      <stop offset=".93" stop-color="#50888e"/>
      <stop offset="1" stop-color="#5fa1a8"/>
      <stop offset="1" stop-color="#61a4ab"/>
    </radialGradient>
    <linearGradient id="Gradiente_sem_nome_18" data-name="Gradiente sem nome 18" x1="927.17" y1="169.33" x2="399.91" y2="675.28" gradientUnits="userSpaceOnUse">
      <stop offset="0" stop-color="#3bffff"/>
      <stop offset=".02" stop-color="#3af5f5"/>
      <stop offset=".13" stop-color="#39ccce"/>
      <stop offset=".24" stop-color="#38aaac"/>
      <stop offset=".35" stop-color="#388e90"/>
      <stop offset=".48" stop-color="#37787b"/>
      <stop offset=".61" stop-color="#37686c"/>
      <stop offset=".77" stop-color="#375f63"/>
      <stop offset="1" stop-color="#375d61"/>
    </linearGradient>
  </defs>
  <path class="st0" d="M562.19,152.89c-161.3,0-292.06,130.76-292.06,292.06s130.76,292.06,292.06,292.06,292.06-130.76,292.06-292.06-130.76-292.06-292.06-292.06ZM603.75,672.36c-125.6,0-227.41-101.82-227.41-227.41s101.81-227.41,227.41-227.41,227.41,101.82,227.41,227.41-101.81,227.41-227.41,227.41Z"/>
  <path class="st1" d="M125.71,542.28c0,219.57,177.99,397.56,397.56,397.56s397.56-177.99,397.56-397.56-177.99-397.56-397.56-397.56S125.71,322.72,125.71,542.28ZM832.83,485.71c0,170.97-138.6,309.56-309.56,309.56s-309.56-138.6-309.56-309.56,138.6-309.56,309.56-309.56,309.56,138.6,309.56,309.56Z"/>
  <path class="st2" d="M538.51,1063.44c287.83,0,521.15-233.33,521.15-521.15S826.34,21.13,538.51,21.13,17.36,254.46,17.36,542.28s233.33,521.15,521.15,521.15ZM464.36,136.48c224.12,0,405.8,181.68,405.8,405.8s-181.68,405.8-405.8,405.8S58.56,766.4,58.56,542.28,240.24,136.48,464.36,136.48Z"/>
</svg>