<svg width="60" height="60" viewBox="0 0 60 60" fill="none" xmlns="http://www.w3.org/2000/svg">
<g clip-path="url(#clip0_29_26)">
<path d="M21.347 32.032C21.2878 32.2509 21.2738 32.4796 21.3059 32.704C21.338 32.9285 21.4155 33.1441 21.5338 33.3375L22.7803 35.4017C23.0199 35.7869 23.3978 36.0658 23.8366 36.1811C24.2753 36.2965 24.7415 36.2396 25.1396 36.022L25.5035 35.8207C25.9709 36.1566 26.4752 36.4381 27.0064 36.6598V36.9975C27.0115 37.4558 27.1981 37.8934 27.5254 38.2144C27.8527 38.5353 28.2939 38.7133 28.7522 38.7095H31.247C31.7045 38.7123 32.1446 38.5339 32.471 38.2133C32.7974 37.8927 32.9836 37.456 32.989 36.9985V36.6607C33.5201 36.4389 34.0243 36.1574 34.4919 35.8217L34.8557 36.023C35.2536 36.2403 35.7195 36.2972 36.158 36.1821C36.5965 36.0669 36.9744 35.7884 37.2141 35.4036L38.4625 33.3385C38.5804 33.1449 38.6577 32.9293 38.6896 32.7048C38.7216 32.4804 38.7075 32.2518 38.6483 32.033C38.5873 31.81 38.4822 31.6016 38.3393 31.4199C38.1963 31.2382 38.0184 31.087 37.8161 30.9753L37.4977 30.8001C37.5596 30.2683 37.5596 29.7312 37.4977 29.1995L37.8161 29.0243C38.0184 28.9125 38.1963 28.7613 38.3393 28.5797C38.4822 28.398 38.5873 28.1895 38.6483 27.9666C38.7076 27.7477 38.7216 27.519 38.6895 27.2946C38.6574 27.0701 38.5798 26.8545 38.4615 26.6611L37.219 24.5969C36.9795 24.2115 36.6016 23.9325 36.1628 23.8171C35.724 23.7017 35.2576 23.7588 34.8596 23.9766L34.4957 24.1778C34.0283 23.842 33.5241 23.5605 32.9928 23.3388V23.0011C32.9875 22.5429 32.8007 22.1056 32.4735 21.7848C32.1462 21.4641 31.7052 21.2862 31.247 21.2901H28.7522C28.2947 21.2873 27.8547 21.4656 27.5283 21.7862C27.2018 22.1068 27.0156 22.5436 27.0103 23.0011V23.3388C26.4791 23.5606 25.9749 23.8421 25.5074 24.1778L25.1435 23.9766C24.7456 23.7592 24.2797 23.7023 23.8412 23.8175C23.4027 23.9326 23.0249 24.2111 22.7851 24.5959L21.5367 26.6611C21.4188 26.8547 21.3416 27.0703 21.3096 27.2947C21.2777 27.5191 21.2917 27.7477 21.3509 27.9666C21.4119 28.1895 21.517 28.398 21.66 28.5797C21.8029 28.7613 21.9808 28.9125 22.1832 29.0243L22.5015 29.1995C22.4396 29.7312 22.4396 30.2683 22.5015 30.8001L22.1832 30.9753C21.9802 31.0865 21.8016 31.2374 21.658 31.4189C21.5144 31.6004 21.4086 31.8089 21.347 32.032ZM24.3867 29.9998C24.3865 29.7608 24.404 29.522 24.439 29.2856C24.4857 28.9461 24.4273 28.6005 24.2715 28.2953C24.1158 27.9901 23.8703 27.7399 23.568 27.5785L23.3251 27.444L24.348 25.7495L24.6615 25.9227C24.963 26.0848 25.3043 26.1578 25.6457 26.1332C25.987 26.1085 26.3143 25.9871 26.5893 25.7833C26.9724 25.5021 27.3896 25.2706 27.8309 25.0943C28.1551 24.9709 28.4347 24.7528 28.6333 24.4683C28.832 24.1839 28.9405 23.8463 28.9448 23.4995V23.2256H31.0603V23.4995C31.0645 23.8463 31.173 24.1839 31.3717 24.4683C31.5703 24.7528 31.8499 24.9709 32.1741 25.0943C32.6159 25.2707 33.0334 25.5026 33.4167 25.7843C33.6914 25.9883 34.0186 26.1097 34.3599 26.1342C34.7012 26.1587 35.0424 26.0853 35.3435 25.9227L35.657 25.7495L36.677 27.444L36.4351 27.5775C36.1322 27.7393 35.8863 27.9901 35.7306 28.296C35.5748 28.602 35.5167 28.9484 35.5641 29.2885C35.5974 29.5241 35.6136 29.7618 35.6125 29.9998C35.6127 30.2388 35.5952 30.4775 35.5603 30.714C35.5135 31.0534 35.572 31.399 35.7277 31.7043C35.8834 32.0095 36.129 32.2597 36.4312 32.4211L36.6741 32.5556L35.6512 34.2501L35.3377 34.0769C35.0362 33.915 34.6949 33.8421 34.3536 33.8668C34.0123 33.8914 33.685 34.0126 33.4099 34.2162C33.0269 34.4975 32.6097 34.729 32.1683 34.9053C31.8441 35.0287 31.5645 35.2468 31.3659 35.5312C31.1672 35.8156 31.0587 36.1532 31.0545 36.5001V36.774H28.9419V36.5001C28.9376 36.1532 28.8291 35.8156 28.6304 35.5312C28.4318 35.2468 28.1522 35.0287 27.828 34.9053C27.3862 34.7288 26.9687 34.497 26.5854 34.2153C26.3104 34.0119 25.9833 33.8909 25.6421 33.8664C25.301 33.8419 24.9599 33.9149 24.6586 34.0769L24.3451 34.2501L23.3222 32.5556L23.5641 32.422C23.867 32.2603 24.1129 32.0095 24.2687 31.7035C24.4244 31.3975 24.4825 31.0511 24.4351 30.7111C24.4018 30.4755 24.3856 30.2377 24.3867 29.9998Z" fill="black"/>
<path d="M29.9999 33.8711C30.7655 33.8711 31.5139 33.6441 32.1505 33.2187C32.787 32.7934 33.2832 32.1888 33.5762 31.4815C33.8692 30.7741 33.9458 29.9958 33.7965 29.2449C33.6471 28.494 33.2784 27.8043 32.7371 27.2629C32.1957 26.7216 31.506 26.3529 30.7551 26.2035C30.0042 26.0542 29.2258 26.1308 28.5185 26.4238C27.8112 26.7168 27.2066 27.2129 26.7813 27.8495C26.3559 28.4861 26.1289 29.2345 26.1289 30.0001C26.1289 31.0268 26.5367 32.0114 27.2627 32.7373C27.9886 33.4633 28.9732 33.8711 29.9999 33.8711ZM29.9999 28.0646C30.3827 28.0646 30.7569 28.1782 31.0752 28.3908C31.3935 28.6035 31.6415 28.9058 31.788 29.2594C31.9345 29.6131 31.9728 30.0023 31.8982 30.3777C31.8235 30.7532 31.6392 31.098 31.3685 31.3687C31.0978 31.6394 30.7529 31.8237 30.3775 31.8984C30.002 31.9731 29.6129 31.9348 29.2592 31.7883C28.9055 31.6418 28.6033 31.3937 28.3906 31.0754C28.1779 30.7571 28.0644 30.3829 28.0644 30.0001C28.0644 29.4868 28.2683 28.9945 28.6313 28.6315C28.9943 28.2686 29.4866 28.0646 29.9999 28.0646Z" fill="black"/>
<path d="M30.0002 15.4839C31.5314 15.4839 33.0283 15.0298 34.3014 14.1791C35.5746 13.3284 36.5669 12.1193 37.1529 10.7046C37.7388 9.29 37.8921 7.73335 37.5934 6.23156C37.2947 4.72977 36.5573 3.35029 35.4746 2.26756C34.3919 1.18483 33.0124 0.447487 31.5106 0.148763C30.0088 -0.149962 28.4522 0.00335449 27.0375 0.589323C25.6229 1.17529 24.4137 2.1676 23.5631 3.44075C22.7124 4.7139 22.2583 6.21073 22.2583 7.74194C22.2606 9.79452 23.077 11.7624 24.5284 13.2138C25.9798 14.6652 27.9477 15.4816 30.0002 15.4839ZM30.0002 1.93549C31.1486 1.93549 32.2713 2.27603 33.2261 2.91405C34.181 3.55207 34.9252 4.45892 35.3647 5.51991C35.8042 6.5809 35.9192 7.74838 35.6951 8.87472C35.4711 10.0011 34.9181 11.0357 34.106 11.8477C33.294 12.6598 32.2594 13.2128 31.133 13.4368C30.0067 13.6609 28.8392 13.5459 27.7782 13.1064C26.7172 12.6669 25.8104 11.9227 25.1723 10.9678C24.5343 10.013 24.1938 8.89035 24.1938 7.74194C24.1953 6.20244 24.8076 4.72644 25.8962 3.63786C26.9847 2.54927 28.4607 1.93702 30.0002 1.93549Z" fill="black"/>
<path d="M60 30C60 28.4688 59.5459 26.972 58.6952 25.6988C57.8445 24.4257 56.6354 23.4333 55.2208 22.8474C53.8061 22.2614 52.2495 22.1081 50.7477 22.4068C49.2459 22.7055 47.8664 23.4429 46.7837 24.5256C45.701 25.6083 44.9636 26.9878 44.6649 28.4896C44.3662 29.9914 44.5195 31.5481 45.1054 32.9627C45.6914 34.3774 46.6837 35.5865 47.9569 36.4372C49.23 37.2879 50.7268 37.7419 52.2581 37.7419C54.3106 37.7396 56.2785 36.9232 57.7299 35.4718C59.1813 34.0204 59.9977 32.0526 60 30ZM52.2581 35.8064C51.1096 35.8064 49.987 35.4659 49.0322 34.8279C48.0773 34.1899 47.3331 33.283 46.8936 32.222C46.4541 31.161 46.3391 29.9936 46.5632 28.8672C46.7872 27.7409 47.3402 26.7063 48.1523 25.8942C48.9643 25.0822 49.9989 24.5292 51.1253 24.3051C52.2516 24.0811 53.4191 24.1961 54.4801 24.6355C55.5411 25.075 56.4479 25.8192 57.0859 26.7741C57.724 27.729 58.0645 28.8516 58.0645 30C58.063 31.5395 57.4507 33.0155 56.3621 34.1041C55.2735 35.1927 53.7975 35.8049 52.2581 35.8064Z" fill="black"/>
<path d="M7.74194 37.7419C9.27315 37.7419 10.77 37.2879 12.0431 36.4372C13.3163 35.5865 14.3086 34.3774 14.8946 32.9627C15.4805 31.5481 15.6338 29.9914 15.3351 28.4896C15.0364 26.9878 14.299 25.6083 13.2163 24.5256C12.1336 23.4429 10.7541 22.7055 9.25231 22.4068C7.75052 22.1081 6.19388 22.2614 4.77922 22.8474C3.36457 23.4333 2.15545 24.4257 1.30475 25.6988C0.454057 26.972 0 28.4688 0 30C0.00230527 32.0526 0.818711 34.0204 2.27011 35.4718C3.7215 36.9232 5.68935 37.7396 7.74194 37.7419ZM7.74194 24.1935C8.89034 24.1935 10.013 24.5341 10.9678 25.1721C11.9227 25.8101 12.6669 26.717 13.1064 27.778C13.5459 28.839 13.6609 30.0064 13.4368 31.1328C13.2128 32.2591 12.6598 33.2937 11.8477 34.1058C11.0357 34.9178 10.0011 35.4708 8.87472 35.6949C7.74838 35.9189 6.58089 35.8039 5.5199 35.3645C4.45891 34.925 3.55207 34.1808 2.91405 33.2259C2.27603 32.271 1.93548 31.1484 1.93548 30C1.93702 28.4605 2.54926 26.9845 3.63785 25.8959C4.72644 24.8073 6.20244 24.1951 7.74194 24.1935Z" fill="black"/>
<path d="M37.7422 52.2581C37.7422 50.7268 37.2881 49.23 36.4374 47.9569C35.5867 46.6837 34.3776 45.6914 32.9629 45.1054C31.5483 44.5195 29.9917 44.3662 28.4899 44.6649C26.9881 44.9636 25.6086 45.701 24.5259 46.7837C23.4431 47.8664 22.7058 49.2459 22.4071 50.7477C22.1083 52.2495 22.2617 53.8061 22.8476 55.2208C23.4336 56.6354 24.4259 57.8445 25.6991 58.6952C26.9722 59.5459 28.469 60 30.0002 60C32.0528 59.9977 34.0207 59.1813 35.4721 57.7299C36.9235 56.2785 37.7399 54.3106 37.7422 52.2581ZM24.1938 52.2581C24.1938 51.1096 24.5343 49.987 25.1724 49.0322C25.8104 48.0773 26.7172 47.3331 27.7782 46.8936C28.8392 46.4541 30.0067 46.3391 31.133 46.5632C32.2594 46.7872 33.294 47.3402 34.106 48.1523C34.9181 48.9643 35.4711 49.9989 35.6951 51.1253C35.9192 52.2516 35.8042 53.4191 35.3647 54.4801C34.9252 55.5411 34.181 56.4479 33.2261 57.0859C32.2713 57.724 31.1486 58.0645 30.0002 58.0645C28.4607 58.063 26.9847 57.4507 25.8962 56.3621C24.8076 55.2735 24.1953 53.7975 24.1938 52.2581Z" fill="black"/>
<path d="M6.77435 12.5806C6.77589 11.2977 7.28617 10.0679 8.19327 9.16077C9.10037 8.25366 10.3302 7.74338 11.6131 7.74184H15.484L13.9356 8.90313L15.0969 10.4515L18.9679 7.5483C19.0881 7.45815 19.1856 7.34126 19.2528 7.20689C19.32 7.07251 19.355 6.92434 19.355 6.7741C19.355 6.62386 19.32 6.47569 19.2528 6.34131C19.1856 6.20694 19.0881 6.09005 18.9679 5.99991L15.0969 3.09668L13.9356 4.64507L15.484 5.80636H11.6131C9.81706 5.80841 8.09521 6.52277 6.82525 7.79274C5.55528 9.0627 4.84092 10.7846 4.83887 12.5806V19.3548H6.77435V12.5806Z" fill="black"/>
<path d="M53.2257 12.5806V15.4838L52.0644 13.9354L50.516 15.0967L53.4192 18.9677C53.5094 19.0879 53.6263 19.1854 53.7606 19.2526C53.895 19.3198 54.0432 19.3548 54.1934 19.3548C54.3437 19.3548 54.4918 19.3198 54.6262 19.2526C54.7606 19.1854 54.8775 19.0879 54.9676 18.9677L57.8708 15.0967L56.3224 13.9354L55.1612 15.4838V12.5806C55.1591 10.7846 54.4447 9.06274 53.1748 7.79278C51.9048 6.52281 50.183 5.80845 48.387 5.8064H40.645V7.74188H48.387C49.6698 7.74342 50.8996 8.2537 51.8067 9.1608C52.7138 10.0679 53.2241 11.2978 53.2257 12.5806Z" fill="black"/>
<path d="M44.9031 56.9033L46.0644 55.3549L44.516 54.1937H48.387C50.183 54.1916 51.9048 53.4772 53.1748 52.2073C54.4447 50.9373 55.1591 49.2155 55.1611 47.4195V40.6453H53.2257V47.4195C53.2241 48.7023 52.7138 49.9321 51.8067 50.8392C50.8996 51.7464 49.6698 52.2566 48.387 52.2582H44.516L46.0644 51.0969L44.9031 49.5485L41.0321 52.4517C40.9119 52.5419 40.8144 52.6588 40.7472 52.7931C40.68 52.9275 40.645 53.0757 40.645 53.2259C40.645 53.3762 40.68 53.5243 40.7472 53.6587C40.8144 53.7931 40.9119 53.91 41.0321 54.0001L44.9031 56.9033Z" fill="black"/>
<path d="M7.93585 46.0643L9.48424 44.903L6.58101 41.0321C6.48696 40.9178 6.36875 40.8257 6.2349 40.7625C6.10104 40.6993 5.95485 40.6665 5.80682 40.6665C5.65879 40.6665 5.51259 40.6993 5.37874 40.7625C5.24488 40.8257 5.12668 40.9178 5.03262 41.0321L2.12939 44.903L3.67778 46.0643L4.83907 44.5159V47.4192C4.84112 49.2152 5.55549 50.937 6.82545 52.207C8.09542 53.4769 9.81728 54.1913 11.6133 54.1934H19.3552V52.2579H11.6133C10.3304 52.2563 9.10058 51.746 8.19348 50.8389C7.28638 49.9318 6.77609 48.702 6.77456 47.4192V44.5159L7.93585 46.0643Z" fill="black"/>
<path d="M29.0322 6.77417H30.9677V8.70965H29.0322V6.77417Z" fill="black"/>
<path d="M49.355 29.0322H51.2905V30.9677H49.355V29.0322Z" fill="black"/>
<path d="M53.2256 29.0322H55.1611V30.9677H53.2256V29.0322Z" fill="black"/>
<path d="M27.0967 53.2258H29.0322V55.1613H27.0967V53.2258Z" fill="black"/>
<path d="M30.9678 53.2258H32.9033V55.1613H30.9678V53.2258Z" fill="black"/>
<path d="M29.0322 49.3547H30.9677V51.2902H29.0322V49.3547Z" fill="black"/>
<path d="M4.83887 30.9678H6.77435V32.9033H4.83887V30.9678Z" fill="black"/>
<path d="M8.70947 30.9678H10.645V32.9033H8.70947V30.9678Z" fill="black"/>
<path d="M4.83887 27.0967H6.77435V29.0322H4.83887V27.0967Z" fill="black"/>
<path d="M8.70947 27.0967H10.645V29.0322H8.70947V27.0967Z" fill="black"/>
</g>
<defs>
<clipPath id="clip0_29_26">
<rect width="60" height="60" fill="white"/>
</clipPath>
</defs>
</svg>
