<svg width="60" height="60" viewBox="0 0 60 60" fill="none" xmlns="http://www.w3.org/2000/svg">
<g clip-path="url(#clip0_29_10)">
<path d="M60.0005 30.0004C60.0004 35.9338 58.2408 41.7339 54.9444 46.6673C51.6479 51.6007 46.9625 55.4458 41.4808 57.7164C35.999 59.987 29.9671 60.5811 24.1477 59.4236C18.3283 58.2661 12.9828 55.4089 8.7872 51.2134C3.83092 46.2565 0.76649 39.7208 0.125688 32.7405C-0.515113 25.7602 1.30816 18.7758 5.27911 12.9994C5.35002 12.892 5.44166 12.7998 5.54865 12.7282C5.65565 12.6566 5.77585 12.6071 5.90222 12.5825C6.02859 12.558 6.15859 12.5589 6.28461 12.5852C6.41062 12.6115 6.53012 12.6627 6.63611 12.7358C6.74209 12.8088 6.83243 12.9023 6.90184 13.0107C6.97125 13.1192 7.01833 13.2403 7.04032 13.3672C7.06231 13.494 7.05877 13.624 7.02992 13.7494C7.00106 13.8749 6.94746 13.9933 6.87226 14.0978C2.90683 19.8656 1.23963 26.9069 2.19773 33.8404C3.15582 40.7739 6.67007 47.0992 12.051 51.5754C17.432 56.0516 24.2914 58.3557 31.2834 58.0356C38.2755 57.7155 44.8957 54.7944 49.8452 49.8453C54.7721 44.9168 57.6894 38.3317 58.0293 31.3713C58.3693 24.4108 56.1076 17.5727 51.6843 12.1877C47.2611 6.80258 40.9927 3.25563 34.0988 2.23695C27.2048 1.21826 20.1785 2.80071 14.3868 6.67639L15.9183 8.49817L9.26745 9.67762L11.5707 3.32797L13.1348 5.18847C17.6447 2.12331 22.9047 0.34524 28.3494 0.0453985C33.794 -0.254443 39.2174 0.935284 44.0366 3.48669C48.8558 6.03809 52.8885 9.85468 55.7012 14.5262C58.514 19.1977 60.0003 24.5474 60.0005 30.0004Z" fill="black"/>
<path d="M30.0004 54.1941C43.3408 54.1941 54.1941 43.3408 54.1941 30.0004C54.1941 16.66 43.3408 5.80664 30.0004 5.80664C16.66 5.80664 5.80664 16.66 5.80664 30.0004C5.80664 43.3408 16.66 54.1941 30.0004 54.1941ZM30.0004 7.74214C42.2736 7.74214 52.2586 17.7271 52.2586 30.0004C52.2586 42.2736 42.2736 52.2586 30.0004 52.2586C17.7271 52.2586 7.74214 42.2736 7.74214 30.0004C7.74214 17.7271 17.7271 7.74214 30.0004 7.74214Z" fill="black"/>
<path d="M30.0005 11.6132C30.2571 11.6132 30.5033 11.5112 30.6848 11.3298C30.8663 11.1483 30.9682 10.9021 30.9682 10.6455V9.67771C30.9682 9.42105 30.8663 9.1749 30.6848 8.99341C30.5033 8.81192 30.2571 8.70996 30.0005 8.70996C29.7438 8.70996 29.4976 8.81192 29.3162 8.99341C29.1347 9.1749 29.0327 9.42105 29.0327 9.67771V10.6455C29.0327 10.9021 29.1347 11.1483 29.3162 11.3298C29.4976 11.5112 29.7438 11.6132 30.0005 11.6132Z" fill="black"/>
<path d="M30.0005 48.3875C29.7438 48.3875 29.4976 48.4894 29.3162 48.6709C29.1347 48.8524 29.0327 49.0985 29.0327 49.3552V50.3229C29.0327 50.5796 29.1347 50.8258 29.3162 51.0073C29.4976 51.1887 29.7438 51.2907 30.0005 51.2907C30.2571 51.2907 30.5033 51.1887 30.6848 51.0073C30.8663 50.8258 30.9682 50.5796 30.9682 50.3229V49.3552C30.9682 49.0985 30.8663 48.8524 30.6848 48.6709C30.5033 48.4894 30.2571 48.3875 30.0005 48.3875Z" fill="black"/>
<path d="M49.3554 30.9682H50.3232C50.5799 30.9682 50.826 30.8663 51.0075 30.6848C51.189 30.5033 51.2909 30.2571 51.2909 30.0005C51.2909 29.7438 51.189 29.4976 51.0075 29.3162C50.826 29.1347 50.5799 29.0327 50.3232 29.0327H49.3554C49.0988 29.0327 48.8526 29.1347 48.6711 29.3162C48.4897 29.4976 48.3877 29.7438 48.3877 30.0005C48.3877 30.2571 48.4897 30.5033 48.6711 30.6848C48.8526 30.8663 49.0988 30.9682 49.3554 30.9682Z" fill="black"/>
<path d="M9.67771 30.9682H10.6455C10.9021 30.9682 11.1483 30.8663 11.3298 30.6848C11.5112 30.5033 11.6132 30.2571 11.6132 30.0005C11.6132 29.7438 11.5112 29.4976 11.3298 29.3162C11.1483 29.1347 10.9021 29.0327 10.6455 29.0327H9.67771C9.42105 29.0327 9.1749 29.1347 8.99341 29.3162C8.81192 29.4976 8.70996 29.7438 8.70996 30.0005C8.70996 30.2571 8.81192 30.5033 8.99341 30.6848C9.1749 30.8663 9.42105 30.9682 9.67771 30.9682Z" fill="black"/>
<path d="M43.686 17.282C43.8131 17.2822 43.939 17.2572 44.0564 17.2086C44.1738 17.1599 44.2805 17.0886 44.3702 16.9986L45.0546 16.3143C45.1461 16.2248 45.219 16.118 45.2689 16.0002C45.3189 15.8824 45.345 15.7558 45.3458 15.6278C45.3465 15.4998 45.3218 15.3729 45.2732 15.2545C45.2245 15.1361 45.1529 15.0286 45.0624 14.938C44.9719 14.8475 44.8643 14.7759 44.7459 14.7272C44.6276 14.6785 44.5007 14.6539 44.3727 14.6546C44.2447 14.6553 44.1181 14.6813 44.0003 14.7313C43.8824 14.7813 43.7757 14.8541 43.6862 14.9456L43.0017 15.6299C42.8664 15.7653 42.7742 15.9377 42.7369 16.1255C42.6995 16.3132 42.7187 16.5078 42.7919 16.6846C42.8652 16.8615 42.9892 17.0126 43.1484 17.1189C43.3075 17.2253 43.4946 17.282 43.686 17.282Z" fill="black"/>
<path d="M15.6299 45.3385C15.757 45.3387 15.8829 45.3137 16.0003 45.2651C16.1178 45.2164 16.2245 45.1451 16.3142 45.0551L16.9987 44.3707C17.0885 44.2809 17.1598 44.1742 17.2085 44.0567C17.2571 43.9393 17.2821 43.8135 17.2821 43.6864C17.2821 43.5593 17.2571 43.4334 17.2085 43.316C17.1598 43.1986 17.0885 43.0919 16.9987 43.002C16.9088 42.9121 16.8021 42.8408 16.6847 42.7922C16.5672 42.7435 16.4414 42.7185 16.3143 42.7185C16.1872 42.7185 16.0613 42.7435 15.9439 42.7922C15.8265 42.8408 15.7198 42.9121 15.6299 43.002L14.9456 43.6864C14.8102 43.8218 14.7181 43.9942 14.6807 44.1819C14.6434 44.3697 14.6625 44.5643 14.7358 44.7411C14.809 44.9179 14.9331 45.0691 15.0922 45.1754C15.2514 45.2818 15.4385 45.3385 15.6299 45.3385Z" fill="black"/>
<path d="M44.3705 43.002C44.2806 42.9121 44.1739 42.8408 44.0565 42.7922C43.9391 42.7435 43.8132 42.7185 43.6861 42.7185C43.559 42.7185 43.4332 42.7435 43.3157 42.7922C43.1983 42.8408 43.0916 42.9121 43.0017 43.002C42.9119 43.0919 42.8406 43.1986 42.7919 43.316C42.7433 43.4334 42.7183 43.5593 42.7183 43.6864C42.7183 43.8135 42.7433 43.9393 42.7919 44.0567C42.8406 44.1742 42.9119 44.2809 43.0017 44.3707L43.6862 45.0551C43.8677 45.2366 44.1138 45.3385 44.3705 45.3385C44.6272 45.3385 44.8733 45.2366 45.0548 45.0551C45.2363 44.8736 45.3383 44.6274 45.3383 44.3707C45.3383 44.1141 45.2363 43.8679 45.0548 43.6864L44.3705 43.002Z" fill="black"/>
<path d="M15.6298 16.9986C15.7195 17.0893 15.8262 17.1615 15.9439 17.2108C16.0615 17.2602 16.1878 17.2858 16.3153 17.2862C16.4429 17.2865 16.5693 17.2617 16.6873 17.213C16.8052 17.1644 16.9124 17.0929 17.0026 17.0027C17.0928 16.9125 17.1643 16.8053 17.2129 16.6874C17.2615 16.5694 17.2864 16.443 17.286 16.3154C17.2856 16.1879 17.26 16.0616 17.2106 15.944C17.1612 15.8263 17.0891 15.7196 16.9983 15.6299L16.3139 14.9456C16.2244 14.8541 16.1176 14.7813 15.9998 14.7313C15.882 14.6813 15.7554 14.6553 15.6274 14.6546C15.4994 14.6539 15.3725 14.6785 15.2541 14.7272C15.1357 14.7759 15.0282 14.8475 14.9377 14.938C14.8472 15.0286 14.7755 15.1361 14.7269 15.2545C14.6783 15.3729 14.6536 15.4998 14.6543 15.6278C14.655 15.7558 14.6812 15.8824 14.7311 16.0002C14.7811 16.118 14.854 16.2248 14.9455 16.3143L15.6298 16.9986Z" fill="black"/>
<path d="M15.7088 33.1629L23.9935 41.4474C24.0833 41.5373 24.19 41.6086 24.3074 41.6572C24.4249 41.7058 24.5507 41.7309 24.6778 41.7309C24.8049 41.7309 24.9307 41.7058 25.0481 41.6572C25.1656 41.6086 25.2722 41.5373 25.3621 41.4474L44.292 22.5176C44.3819 22.4278 44.4532 22.3211 44.5018 22.2036C44.5505 22.0862 44.5755 21.9603 44.5755 21.8332C44.5755 21.7061 44.5505 21.5803 44.5018 21.4628C44.4532 21.3454 44.3819 21.2387 44.292 21.1489L42.2391 19.0959C42.1492 19.006 42.0425 18.9347 41.9251 18.8861C41.8076 18.8374 41.6818 18.8124 41.5547 18.8124C41.4276 18.8124 41.3017 18.8374 41.1843 18.8861C41.0669 18.9347 40.9602 19.006 40.8703 19.0959L24.6778 35.2886L19.1305 29.7411C19.0407 29.6513 18.934 29.58 18.8165 29.5313C18.6991 29.4827 18.5733 29.4576 18.4462 29.4576C18.3191 29.4576 18.1932 29.4827 18.0758 29.5313C17.9583 29.58 17.8516 29.6513 17.7618 29.7411L15.7088 31.7941C15.6189 31.884 15.5476 31.9907 15.499 32.1081C15.4503 32.2255 15.4253 32.3514 15.4253 32.4785C15.4253 32.6056 15.4503 32.7315 15.499 32.8489C15.5476 32.9663 15.6189 33.073 15.7088 33.1629ZM18.4461 31.7941L23.9935 37.3416C24.0833 37.4315 24.19 37.5028 24.3074 37.5514C24.4249 37.6 24.5507 37.6251 24.6778 37.6251C24.8049 37.6251 24.9307 37.6 25.0481 37.5514C25.1656 37.5028 25.2722 37.4315 25.3621 37.3416L41.5547 21.1489L42.2391 21.8332L24.6778 39.3944L17.7618 32.4784L18.4461 31.7941Z" fill="black"/>
</g>
<defs>
<clipPath id="clip0_29_10">
<rect width="60" height="60" fill="white"/>
</clipPath>
</defs>
</svg>
