<svg width="60" height="60" viewBox="0 0 60 60" fill="none" xmlns="http://www.w3.org/2000/svg">
<g clip-path="url(#clip0_29_7)">
<path d="M30 17.614C27.5503 17.6141 25.1557 18.3407 23.1189 19.7017C21.0821 21.0628 19.4947 22.9973 18.5573 25.2606C17.6199 27.5238 17.3748 30.0142 17.8528 32.4168C18.3308 34.8194 19.5105 37.0263 21.2427 38.7585C22.975 40.4906 25.1819 41.6702 27.5846 42.1481C29.9872 42.6259 32.4776 42.3806 34.7408 41.4431C37.004 40.5056 38.9384 38.9181 40.2993 36.8812C41.6603 34.8444 42.3867 32.4497 42.3867 30C42.383 26.716 41.0767 23.5677 38.7546 21.2456C36.4324 18.9236 33.2839 17.6175 30 17.614ZM36.0276 21.394C35.6852 21.6338 35.3288 21.8529 34.9603 22.0502C34.688 21.4289 34.3597 20.8336 33.9796 20.2717C34.7019 20.5685 35.3888 20.9449 36.0276 21.394ZM30 19.6193C31.1383 19.6193 32.3437 20.7912 33.235 22.7845C31.1322 23.4657 28.868 23.4657 26.7653 22.7845C27.6562 20.7907 28.8617 19.6193 30 19.6193ZM30 25.1702C31.3157 25.1697 32.6229 24.9594 33.8725 24.5475C34.2846 26.0193 34.5198 27.535 34.5732 29.0625H25.4269C25.4802 27.5349 25.7155 26.0191 26.1276 24.5471C27.3772 24.9592 28.6843 25.1695 30 25.1702ZM34.5732 30.9375C34.5228 32.3301 34.3239 33.7134 33.9798 35.0638C31.3993 34.1858 28.6008 34.1858 26.0203 35.0638C25.6762 33.7134 25.4772 32.3301 25.4269 30.9375H34.5732ZM26.0205 20.272C25.6404 20.8337 25.3121 21.4289 25.0399 22.0501C24.6712 21.8529 24.3147 21.6337 23.9722 21.3939C24.6111 20.9449 25.2982 20.5686 26.0205 20.272ZM22.5027 22.6406C23.0937 23.0901 23.724 23.4853 24.3859 23.8216C23.8865 25.5262 23.6053 27.2872 23.5489 29.0625H19.5313C19.7473 26.6421 20.7976 24.372 22.5027 22.6406ZM19.5313 30.9375H23.5489C23.6032 32.5837 23.8481 34.2181 24.2788 35.8079C23.5683 36.1769 22.8953 36.6141 22.2694 37.1133C20.6996 35.4136 19.7368 33.242 19.5313 30.9375ZM23.6811 38.3941C24.0662 38.104 24.4709 37.8408 24.8923 37.6064C25.1934 38.3508 25.5716 39.0617 26.0205 39.7275C25.1868 39.3851 24.4006 38.937 23.6811 38.3941ZM30 40.3807C28.793 40.3807 27.5096 39.0633 26.6069 36.8446C28.8065 36.0922 31.1936 36.0922 33.3932 36.8446C32.4905 39.0633 31.207 40.3807 30 40.3807ZM33.9796 39.728C34.4285 39.0622 34.8066 38.3513 35.1077 37.6069C35.529 37.8413 35.9337 38.1045 36.3189 38.3946C35.5995 38.9375 34.8133 39.3857 33.9796 39.728ZM37.7307 37.1138C37.1048 36.6144 36.4318 36.1771 35.7212 35.8079C36.1519 34.2181 36.3968 32.5837 36.451 30.9375H40.4688C40.2633 33.242 39.3005 35.4141 37.7307 37.1138ZM36.451 29.0625C36.3948 27.2873 36.1136 25.5265 35.6141 23.8221C36.276 23.4857 36.9062 23.0903 37.4971 22.6406C39.2022 24.372 40.2527 26.6421 40.4688 29.0625H36.451ZM2.18543 16.4666H3.53308V18.9339C3.53309 19.0984 3.57641 19.2601 3.65869 19.4026C3.74098 19.5451 3.85933 19.6635 4.00185 19.7457C4.14436 19.828 4.30603 19.8713 4.47059 19.8713C4.63515 19.8713 4.79682 19.828 4.93933 19.7457L10.6189 16.4666H18.4399C19.0193 16.4658 19.5747 16.2353 19.9843 15.8256C20.3939 15.4159 20.6243 14.8604 20.625 14.2811V2.93918C20.6243 2.35977 20.3939 1.80427 19.9842 1.39457C19.5745 0.984861 19.019 0.754401 18.4396 0.75375H2.18543C1.60602 0.754401 1.05052 0.984861 0.640817 1.39457C0.23111 1.80427 0.000651356 2.35977 0 2.93918V14.2811C0.000651298 14.8605 0.231107 15.416 0.64081 15.8257C1.05051 16.2354 1.60601 16.4659 2.18543 16.4666ZM1.875 2.93918C1.87606 2.85718 1.90911 2.77884 1.9671 2.72085C2.02509 2.66286 2.10343 2.62981 2.18543 2.62875H18.4393C18.5214 2.62975 18.5998 2.66277 18.6578 2.72077C18.7159 2.77876 18.7489 2.85714 18.75 2.93918V14.2811C18.7489 14.3631 18.7159 14.4414 18.6579 14.4994C18.5999 14.5574 18.5216 14.5905 18.4396 14.5916H10.3675C10.2029 14.5916 10.0412 14.6349 9.89871 14.7172L5.40773 17.3101V15.5289C5.40773 15.2802 5.30896 15.0418 5.13315 14.866C4.95733 14.6901 4.71887 14.5914 4.47023 14.5914H2.18508C2.10317 14.5902 2.02495 14.5571 1.96704 14.4992C1.90914 14.4412 1.87612 14.363 1.875 14.2811V2.93918ZM4.51793 8.61023C4.51793 8.36159 4.6167 8.12314 4.79252 7.94732C4.96833 7.77151 5.20679 7.67273 5.45543 7.67273C5.64085 7.67273 5.8221 7.72772 5.97627 7.83073C6.13045 7.93375 6.25061 8.08016 6.32156 8.25147C6.39252 8.42277 6.41109 8.61127 6.37491 8.79313C6.33874 8.97499 6.24945 9.14204 6.11834 9.27315C5.98723 9.40426 5.82018 9.49355 5.63833 9.52972C5.45647 9.56589 5.26797 9.54733 5.09666 9.47637C4.92536 9.40541 4.77894 9.28525 4.67593 9.13108C4.57291 8.97691 4.51793 8.79565 4.51793 8.61023ZM9.375 8.61023C9.375 8.36159 9.47377 8.12314 9.64958 7.94732C9.8254 7.77151 10.0639 7.67273 10.3125 7.67273C10.4979 7.67273 10.6792 7.72772 10.8333 7.83073C10.9875 7.93375 11.1077 8.08016 11.1786 8.25147C11.2496 8.42277 11.2682 8.61127 11.232 8.79313C11.1958 8.97499 11.1065 9.14204 10.9754 9.27315C10.8443 9.40426 10.6773 9.49355 10.4954 9.52972C10.3135 9.56589 10.125 9.54733 9.95373 9.47637C9.78242 9.40541 9.63601 9.28525 9.53299 9.13108C9.42998 8.97691 9.375 8.79565 9.375 8.61023ZM14.2322 8.61023C14.2322 8.36159 14.331 8.12314 14.5068 7.94732C14.6826 7.77151 14.921 7.67273 15.1697 7.67273C15.3551 7.67273 15.5364 7.72772 15.6905 7.83073C15.8447 7.93375 15.9649 8.08016 16.0358 8.25147C16.1068 8.42277 16.1253 8.61127 16.0892 8.79313C16.053 8.97499 15.9637 9.14204 15.8326 9.27315C15.7015 9.40426 15.5344 9.49355 15.3526 9.52972C15.1707 9.56589 14.9822 9.54733 14.8109 9.47637C14.6396 9.40541 14.4932 9.28525 14.3902 9.13108C14.2872 8.97691 14.2322 8.79565 14.2322 8.61023ZM39.375 44.2601V55.1149C39.3757 55.7141 39.6141 56.2886 40.0378 56.7123C40.4615 57.136 41.036 57.3743 41.6352 57.375H57.7398C58.339 57.3743 58.9134 57.136 59.3372 56.7123C59.7609 56.2886 59.9992 55.7141 60 55.1149V44.2601C59.9992 43.6609 59.7609 43.0864 59.3372 42.6627C58.9134 42.2391 58.339 42.0007 57.7398 42H41.6352C41.036 42.0007 40.4615 42.2391 40.0378 42.6627C39.6141 43.0864 39.3757 43.6609 39.375 44.2601ZM41.25 53.76V45.1916L45.5342 49.4757L41.25 53.76ZM42.1616 55.5002L46.8601 50.8017L48.248 52.1896C48.638 52.5785 49.1663 52.797 49.7171 52.797C50.268 52.797 50.7963 52.5785 51.1863 52.1896L52.5445 50.8313L57.2134 55.5L42.1616 55.5002ZM58.125 45.2509V53.76L53.8704 49.5054L58.125 45.2509ZM56.8493 43.875L49.8606 50.8638C49.8222 50.9012 49.7708 50.9222 49.7172 50.9222C49.6636 50.9222 49.6122 50.9012 49.5738 50.8638L42.585 43.875H56.8493ZM49.6875 0C46.9524 0 44.3294 1.08649 42.3954 3.02046C40.4615 4.95443 39.375 7.57746 39.375 10.3125C39.375 13.0475 40.4615 15.6706 42.3954 17.6045C44.3294 19.5385 46.9524 20.625 49.6875 20.625C49.9361 20.625 50.1746 20.5262 50.3504 20.3504C50.5262 20.1746 50.625 19.9361 50.625 19.6875C50.625 19.4389 50.5262 19.2004 50.3504 19.0246C50.1746 18.8488 49.9361 18.75 49.6875 18.75C47.8131 18.7493 45.9923 18.1242 44.5126 16.9735C43.033 15.8227 41.9789 14.2119 41.5167 12.3953C41.0545 10.5788 41.2106 8.66004 41.9604 6.94208C42.7101 5.22412 44.0108 3.80486 45.6569 2.90842C47.3031 2.01198 49.201 1.68944 51.0509 1.99174C52.9008 2.29403 54.5972 3.20394 55.8724 4.57777C57.1476 5.9516 57.9288 7.71107 58.0927 9.57832C58.2565 11.4456 57.7937 13.3142 56.7773 14.8891C56.6541 15.0795 56.4726 15.225 56.2599 15.3037C56.0472 15.3824 55.8147 15.3903 55.5972 15.326C55.3797 15.2618 55.1887 15.1289 55.053 14.9473C54.9172 14.7656 54.8438 14.5449 54.8437 14.3181V10.3193C54.8437 10.3171 54.8437 10.3148 54.8437 10.3125C54.8437 10.3102 54.8437 10.3079 54.8437 10.3057V10.2237C54.8437 10.1959 54.842 10.1685 54.8395 10.1416C54.8016 8.97684 54.3705 7.85917 53.6163 6.97067C52.8622 6.08217 51.8294 5.47517 50.6862 5.24854C49.543 5.02192 48.3568 5.189 47.3207 5.7226C46.2846 6.25619 45.4597 7.12485 44.9803 8.18711C44.501 9.24936 44.3953 10.4426 44.6807 11.5726C44.966 12.7025 45.6255 13.7026 46.5518 14.4099C47.4781 15.1172 48.6165 15.49 49.7817 15.4677C50.9469 15.4454 52.0702 15.0293 52.9687 14.287V14.3181C52.9688 14.9495 53.173 15.564 53.5511 16.0698C53.9291 16.5756 54.4606 16.9455 55.0662 17.1243C55.6718 17.3032 56.319 17.2813 56.9111 17.062C57.5033 16.8427 58.0086 16.4378 58.3516 15.9076C59.3569 14.3501 59.9239 12.5505 59.9929 10.698C60.0619 8.84556 59.6304 7.00874 58.7437 5.38078C57.857 3.75283 56.548 2.39394 54.9543 1.44705C53.3607 0.500161 51.5412 0.000281914 49.6875 0ZM52.9687 10.3193C52.9669 11.1889 52.62 12.0223 52.0041 12.6363C51.3882 13.2503 50.5537 13.5946 49.6841 13.5937C48.8144 13.5928 47.9807 13.2467 47.3661 12.6315C46.7515 12.0162 46.4062 11.1822 46.4062 10.3125C46.4062 9.44285 46.7515 8.60876 47.3661 7.99351C47.9807 7.37825 48.8144 7.03215 49.6841 7.03125C50.5537 7.03035 51.3882 7.37472 52.0041 7.9887C52.62 8.60269 52.9669 9.43605 52.9687 10.3057V10.3193ZM8.54718 43.9279L6.82558 40.511C6.63099 40.1242 6.31956 39.8084 5.93544 39.6084C5.55133 39.4084 5.11402 39.3344 4.68551 39.3969L3.13605 39.6211C2.83353 39.6634 2.54453 39.7738 2.29078 39.9438C1.64183 40.3762 1.10209 40.9533 0.714038 41.6297C0.325986 42.3061 0.100215 43.0634 0.0544922 43.8418C-0.0491968 44.855 -0.00108875 45.878 0.197226 46.877C0.399732 47.8992 0.721095 48.8943 1.15477 49.8418C3.0191 53.7971 6.20202 56.98 10.1572 58.8444C11.1048 59.2782 12.0998 59.5996 13.1221 59.8021C13.7859 59.9318 14.4605 59.998 15.1369 60C15.4778 60.0002 15.8184 59.9821 16.1573 59.9457C16.9359 59.8999 17.6932 59.674 18.3697 59.2859C19.0462 58.8978 19.6234 58.3581 20.0559 57.7091C20.2257 57.4555 20.3359 57.1668 20.3783 56.8645L20.6031 55.3145C20.6655 54.886 20.5915 54.4487 20.3916 54.0646C20.1916 53.6805 19.8758 53.3691 19.489 53.1745L16.0721 51.4528C15.6454 51.2389 15.1578 51.1792 14.692 51.2836C14.2262 51.388 13.8108 51.6503 13.5162 52.0259L12.581 53.2233C10.167 52.2496 7.75054 49.8333 6.77683 47.4192L7.97437 46.4839C8.34996 46.1893 8.61216 45.7739 8.71655 45.308C8.82094 44.8422 8.76111 44.3546 8.54718 43.9279ZM6.82019 45.006L5.39215 46.1211C5.1468 46.3124 4.96814 46.5763 4.88165 46.8751C4.79515 47.1739 4.80525 47.4924 4.91051 47.7852C6.02824 50.8995 9.09972 53.9709 12.2137 55.0886C12.5066 55.194 12.8253 55.2042 13.1243 55.1178C13.4233 55.0313 13.6873 54.8525 13.8786 54.607L14.9939 53.179C15.0204 53.1439 15.0585 53.1193 15.1014 53.1097C15.1444 53.1001 15.1893 53.106 15.2283 53.1265L18.6451 54.848C18.6816 54.8647 18.7114 54.8931 18.7299 54.9287C18.7485 54.9643 18.7546 55.005 18.7474 55.0445L18.5226 56.5945C18.5196 56.6225 18.5094 56.6491 18.4931 56.672C18.2213 57.0797 17.8583 57.4186 17.4329 57.6618C17.0075 57.9051 16.5313 58.0459 16.042 58.0733C16.0172 58.0746 15.9916 58.0768 15.96 58.0801C15.1309 58.1645 14.2938 58.1243 13.4766 57.9609C12.5983 57.7862 11.7434 57.5093 10.9295 57.1359C7.39005 55.4595 4.54009 52.6095 2.86371 49.07C2.49044 48.2562 2.21367 47.4016 2.03906 46.5234C1.8757 45.7065 1.83541 44.8697 1.91953 44.0408C1.92234 44.0149 1.92469 43.9884 1.92644 43.9588C1.95371 43.4694 2.09455 42.993 2.33782 42.5675C2.58109 42.142 2.9201 41.7789 3.32801 41.5071C3.35086 41.4908 3.37755 41.4807 3.40547 41.4777L4.95527 41.2529C4.96582 41.2514 4.97648 41.2506 4.98715 41.2506C5.02178 41.2502 5.05579 41.2599 5.08502 41.2784C5.11426 41.297 5.13746 41.3237 5.1518 41.3552L6.87328 44.7718C6.89367 44.8108 6.89954 44.8558 6.88983 44.8988C6.88013 44.9417 6.85537 44.9795 6.82019 45.006ZM9.05929 39.8503V20.1777C9.05929 19.9291 9.15807 19.6906 9.33388 19.5148C9.5097 19.339 9.74815 19.2402 9.99679 19.2402C10.2454 19.2402 10.4839 19.339 10.6597 19.5148C10.8355 19.6906 10.9343 19.9291 10.9343 20.1777V39.8505C10.9343 40.0992 10.8355 40.3376 10.6597 40.5135C10.4839 40.6893 10.2454 40.788 9.99679 40.788C9.74815 40.788 9.5097 40.6893 9.33388 40.5135C9.15807 40.3376 9.05929 40.099 9.05929 39.8503ZM20.1082 50.9414C19.8596 50.9414 19.6211 50.8426 19.4453 50.6668C19.2695 50.491 19.1707 50.2525 19.1707 50.0039C19.1707 49.7553 19.2695 49.5168 19.4453 49.341C19.6211 49.1652 19.8596 49.0664 20.1082 49.0664H36.0937C36.3424 49.0664 36.5808 49.1652 36.7567 49.341C36.9325 49.5168 37.0312 49.7553 37.0312 50.0039C37.0312 50.2525 36.9325 50.491 36.7567 50.6668C36.5808 50.8426 36.3424 50.9414 36.0937 50.9414H20.1082ZM50.0039 40.6854C49.7552 40.6854 49.5168 40.5866 49.341 40.4108C49.1652 40.235 49.0664 39.9965 49.0664 39.7479V23.9062C49.0664 23.6576 49.1652 23.4192 49.341 23.2433C49.5168 23.0675 49.7552 22.9688 50.0039 22.9688C50.2525 22.9688 50.491 23.0675 50.6668 23.2433C50.8426 23.4192 50.9414 23.6576 50.9414 23.9062V39.7479C50.9414 39.9965 50.8426 40.235 50.6668 40.4108C50.491 40.5866 50.2525 40.6854 50.0039 40.6854ZM23.9062 10.9343C23.6576 10.9343 23.4191 10.8355 23.2433 10.6597C23.0675 10.4839 22.9687 10.2454 22.9687 9.9968C22.9687 9.74816 23.0675 9.5097 23.2433 9.33388C23.4191 9.15807 23.6576 9.0593 23.9062 9.0593H36.0974C36.346 9.0593 36.5845 9.15807 36.7603 9.33388C36.9361 9.5097 37.0349 9.74816 37.0349 9.9968C37.0349 10.2454 36.9361 10.4839 36.7603 10.6597C36.5845 10.8355 36.346 10.9343 36.0974 10.9343H23.9062Z" fill="black"/>
</g>
<defs>
<clipPath id="clip0_29_7">
<rect width="60" height="60" fill="white"/>
</clipPath>
</defs>
</svg>
