<svg width="57" height="60" viewBox="0 0 57 60" fill="none" xmlns="http://www.w3.org/2000/svg">
<g clip-path="url(#clip0_29_48)">
<path d="M20.2128 27.7151C13.1179 27.7151 7.34575 33.3485 7.34575 40.273C7.34575 47.1976 13.1179 52.8309 20.2128 52.8309C27.3077 52.8309 33.0798 47.1975 33.0798 40.273C33.0798 33.3486 27.3077 27.7151 20.2128 27.7151ZM20.2128 51.0586C14.1191 51.0586 9.16153 46.2201 9.16153 40.2729C9.16153 34.3257 14.1191 29.4871 20.2128 29.4871C26.3064 29.4871 31.264 34.3256 31.264 40.2729C31.264 46.2203 26.3064 51.0586 20.2128 51.0586ZM22.7173 31.8775C21.9462 31.1249 20.9626 30.7816 20.0185 30.9357C19.0745 31.0897 18.2589 31.7266 17.7804 32.683L15.3485 37.5457L11.7145 41.0923C11.5322 41.2703 11.4297 41.5118 11.4297 41.7635C11.4297 42.0153 11.5322 42.2568 11.7145 42.4348L11.9766 42.6906C11.6724 43.2151 11.5095 43.8095 11.5095 44.4285C11.5095 45.3732 11.8864 46.2613 12.5708 46.9292C13.2773 47.6187 14.2053 47.9634 15.1331 47.9634C15.748 47.9634 16.3625 47.811 16.913 47.5084L17.1759 47.7649L17.1792 47.7662C17.2899 47.8734 17.4261 47.9559 17.5801 48.0018L22.9721 49.6053C23.0655 49.633 23.161 49.6466 23.2556 49.6466C23.5098 49.6466 23.7585 49.5492 23.9437 49.3685L25.8181 47.5391C26.198 47.1684 26.198 46.5672 25.8181 46.1966L23.2646 43.7044L27.168 41.8449C28.148 41.3781 28.8005 40.5819 28.9584 39.6606C29.1162 38.7394 28.7645 37.7794 27.9935 37.0268L22.7173 31.8775ZM16.1514 39.4473L20.2372 43.4349L17.8638 45.7511L13.778 41.7635L16.1514 39.4473ZM15.1331 46.0665C14.6849 46.0665 14.2635 45.8961 13.9465 45.5867C13.6297 45.2775 13.4551 44.8661 13.4551 44.4286C13.4551 44.3367 13.4645 44.2463 13.4796 44.1575L15.4109 46.0424C15.3199 46.0572 15.2274 46.0665 15.1331 46.0665ZM22.9808 47.623L19.6976 46.6466L21.6129 44.7775L23.7547 46.8679L22.9808 47.623ZM27.0395 39.3476C26.9859 39.6605 26.7286 39.9415 26.3146 40.1386L21.8098 42.2846L17.33 37.9124L19.5287 33.5158C19.7307 33.112 20.0185 32.8608 20.3392 32.8084C20.6595 32.7561 21.0157 32.9022 21.3414 33.22L26.6177 38.3695C26.9434 38.6872 27.0932 39.0347 27.0395 39.3476ZM52.0609 0H33.9206C31.1972 0 28.9816 2.16241 28.9816 4.82038V6.41304C24.9474 6.77089 21.0938 8.12127 17.7469 10.3494C16.9572 9.73051 15.9833 9.3938 14.956 9.3938C13.7623 9.3938 12.6402 9.84734 11.7962 10.6711C10.952 11.4949 10.4872 12.5901 10.4872 13.7552C10.4872 14.7571 10.8318 15.7068 11.4648 16.4771C9.78097 18.8801 8.59332 21.5289 7.92784 24.3643L3.57631 28.6111C3.40602 28.7773 3.31043 29.0027 3.31043 29.2377C3.31043 29.4728 3.40602 29.6981 3.57631 29.8643L5.29755 31.5441C4.40301 32.9813 3.73844 34.5258 3.31523 36.152H0.907891C0.406476 36.152 0 36.5487 0 37.0381V43.5078C0 43.9972 0.406476 44.3939 0.907891 44.3939H3.27087C3.68059 46.0416 4.33751 47.6084 5.23049 49.0672L3.57644 50.6815C3.40615 50.8477 3.31043 51.073 3.31043 51.3081C3.31043 51.5432 3.40602 51.7685 3.57631 51.9347L8.26388 56.5095C8.61848 56.8556 9.19344 56.8556 9.54777 56.5095L11.1794 54.9172C12.6792 55.8067 14.2919 56.4628 15.9903 56.8744V59.1139C15.9903 59.6033 16.3968 60 16.8982 60H23.5272C24.0286 60 24.4351 59.6033 24.4351 59.1139V56.8744C26.1333 56.4629 27.7462 55.8067 29.2462 54.9172L30.8775 56.5095C31.0478 56.6757 31.2788 56.769 31.5195 56.769C31.7602 56.769 31.9912 56.6757 32.1615 56.5095L36.5131 52.2627C39.4191 51.6129 42.1337 50.4535 44.5961 48.8096C45.3831 49.4211 46.3512 49.7539 47.3722 49.7539C48.5658 49.7539 49.688 49.3003 50.5321 48.4765C52.1524 46.8949 52.265 44.3916 50.8715 42.6811C53.5775 38.8134 55.0048 34.3019 55.0048 29.5848C55.0048 26.4357 54.3765 23.3994 53.1364 20.5404C55.3441 20.0597 57 18.1339 57 15.8365V4.82038C57 2.16241 54.7844 0 52.0609 0ZM52.0609 18.8847H33.9206C33.3485 18.8847 32.8124 18.733 32.3508 18.47L40.1175 10.6334L42.406 12.5144C42.575 12.6533 42.7829 12.7228 42.9908 12.7228C43.2012 12.7228 43.4115 12.6516 43.5815 12.5097L45.8471 10.6162L53.6311 18.4701C53.1692 18.733 52.633 18.8847 52.0609 18.8847ZM38.7253 9.48911L31.1128 17.1701C30.911 16.767 30.7974 16.3144 30.7974 15.8365V4.82038C30.7974 4.27152 30.9475 3.75646 31.2088 3.31114L38.7253 9.48911ZM47.2286 9.46114L54.7099 3.2081C55.01 3.6762 55.1843 4.22861 55.1843 4.82038V15.8365C55.1843 16.3144 55.0707 16.767 54.8689 17.1701L47.2286 9.46114ZM52.0609 1.77215C52.5102 1.77215 52.9373 1.86595 53.3237 2.03342L42.9858 10.6742L32.5388 2.08772C32.9558 1.88608 33.4248 1.77215 33.9206 1.77215H52.0609ZM13.0801 11.9243C13.5811 11.4353 14.2473 11.1659 14.956 11.1659C15.6646 11.1659 16.3309 11.4352 16.8319 11.9243C17.8664 12.9339 17.8664 14.5765 16.832 15.5859C16.3309 16.0751 15.6646 16.3443 14.956 16.3443C14.2473 16.3443 13.5811 16.0751 13.08 15.5859C12.579 15.097 12.303 14.4467 12.303 13.7552C12.303 13.0637 12.579 12.4133 13.0801 11.9243ZM31.5195 54.6299L30.015 53.1614C29.7088 52.8627 29.229 52.8163 28.8691 53.0508C27.1824 54.149 25.3242 54.9051 23.346 55.298C22.9231 55.382 22.6192 55.7451 22.6192 56.1662V58.2278H17.806V56.1663C17.806 55.7451 17.5021 55.3822 17.0791 55.2981C15.1008 54.9051 13.2426 54.149 11.5562 53.0509C11.1964 52.8165 10.7164 52.8625 10.4104 53.1615L8.90563 54.63L5.50208 51.3082L7.02513 49.8218C7.32941 49.5249 7.37843 49.0604 7.14238 48.7092C6.03774 47.0657 5.2803 45.2579 4.89081 43.3361C4.80677 42.921 4.43375 42.6219 4.00017 42.6219H1.81578V37.9243H4.03661C4.46631 37.9243 4.83711 37.6304 4.92531 37.2199C5.33321 35.3189 6.10181 33.533 7.20982 31.912C7.45016 31.5606 7.40255 31.0924 7.0966 30.7938L5.50234 29.2379L8.90589 25.9161L10.5186 27.49C10.823 27.787 11.299 27.8347 11.6585 27.6043C13.319 26.5414 15.1428 25.8073 17.0794 25.4227C17.5023 25.3386 17.8062 24.9756 17.8062 24.5544V22.3181H22.6195V24.5544C22.6195 24.9757 22.9233 25.3386 23.3463 25.4227C25.283 25.8075 27.1068 26.5415 28.7673 27.6043C29.1266 27.8346 29.6028 27.787 29.9072 27.49L31.5198 25.9161L34.9233 29.2379L33.3291 30.7938C33.0231 31.0925 32.9755 31.5606 33.2158 31.912C34.324 33.5333 35.0927 35.3191 35.5004 37.2197C35.5884 37.6303 35.9592 37.9242 36.3891 37.9242H38.6099V42.6218H36.4252C35.9917 42.6218 35.6186 42.9209 35.5346 43.336C35.1451 45.2579 34.3875 47.0656 33.283 48.7091C33.0471 49.0603 33.0961 49.5248 33.4003 49.8216L34.9233 51.3081L31.5195 54.6299ZM49.2482 47.2233C48.7471 47.7124 48.0809 47.9816 47.3723 47.9816C46.6637 47.9816 45.9974 47.7124 45.4962 47.2232C44.9952 46.7342 44.7192 46.0839 44.7192 45.3924C44.7192 44.7009 44.9952 44.0506 45.4964 43.5615C45.9974 43.0725 46.6637 42.8032 47.3723 42.8032C48.0809 42.8032 48.7471 43.0725 49.2482 43.5615C50.2825 44.5711 50.2825 46.2137 49.2482 47.2233ZM49.4716 41.54C48.833 41.2075 48.1165 41.031 47.3723 41.031C46.1786 41.031 45.0564 41.4847 44.2125 42.3084C43.3683 43.1322 42.9034 44.2273 42.9034 45.3924C42.9034 46.1192 43.0845 46.819 43.4256 47.4425C41.3259 48.8205 39.0314 49.8208 36.5846 50.4235L35.1949 49.0672C36.088 47.6082 36.7448 46.0415 37.1545 44.3939H39.5175C40.0189 44.3939 40.4254 43.9972 40.4254 43.5078V37.0381C40.4254 36.5487 40.0189 36.152 39.5175 36.152H37.1102C36.687 34.5261 36.0225 32.9814 35.1279 31.5441L36.8491 29.8643C37.0194 29.6981 37.115 29.4728 37.115 29.2377C37.115 29.0027 37.0194 28.7773 36.8491 28.6111L32.1615 24.0363C31.9912 23.8701 31.7602 23.7768 31.5195 23.7768C31.2788 23.7768 31.0478 23.8703 30.8775 24.0363L29.1341 25.738C27.6653 24.8815 26.0902 24.2475 24.4352 23.8462V21.4319C24.4352 20.9425 24.0288 20.5458 23.5274 20.5458H16.8983C16.3969 20.5458 15.9904 20.9425 15.9904 21.4319V23.8462C14.3355 24.2475 12.7605 24.8815 11.2916 25.738L9.81236 24.2943C10.4305 21.9048 11.4563 19.6641 12.8696 17.6138C13.505 17.942 14.2168 18.1165 14.9561 18.1165C16.1497 18.1165 17.2719 17.6629 18.1161 16.8391C19.5329 15.4562 19.7975 13.3682 18.9099 11.7219C21.9225 9.74899 25.3715 8.54241 28.9817 8.19544V15.8365C28.9817 18.4944 31.1973 20.6568 33.9208 20.6568H51.2051C52.5215 23.463 53.1892 26.4635 53.1892 29.5847C53.1891 33.8846 51.9066 37.9996 49.4716 41.54Z" fill="black"/>
</g>
<defs>
<clipPath id="clip0_29_48">
<rect width="57" height="60" fill="white"/>
</clipPath>
</defs>
</svg>
