<svg width="49" height="60" viewBox="0 0 49 60" fill="none" xmlns="http://www.w3.org/2000/svg">
<g clip-path="url(#clip0_29_23)">
<path d="M5.81154 18.2424H14.5119C14.3201 18.9693 14.2148 19.7361 14.2148 20.529V21.4477C14.2148 22.7472 15.2153 23.8041 16.4453 23.8041H32.1434C33.3734 23.8041 34.374 22.7472 34.374 21.4477V20.529C34.374 19.7361 34.2687 18.9693 34.0768 18.2424H42.7772C43.7991 18.2424 44.6304 17.3698 44.6304 16.298V15.6146C44.6304 12.4105 42.4387 9.74669 39.5849 9.26744C40.0564 8.85417 40.4501 8.31518 40.746 7.65544C41.66 5.62146 41.418 2.8767 40.2068 1.53607C39.348 0.586295 38.3098 0.143151 36.9381 0.143151C35.5626 0.143151 34.5219 0.586295 33.663 1.53607C32.4518 2.8767 32.2099 5.62146 33.1239 7.6542C33.4211 8.31394 33.8148 8.85417 34.2875 9.26744C32.339 9.60105 30.6426 10.9728 29.8025 12.8972C28.9988 12.5039 28.1223 12.2549 27.202 12.1802C28.027 11.6201 28.6978 10.7948 29.1768 9.73175C30.368 7.08284 30.062 3.51901 28.496 1.78627C27.3989 0.567623 26.0648 0 24.3006 0C22.5315 0 21.1949 0.567623 20.0928 1.78627C18.5267 3.51901 18.222 7.08284 19.4119 9.7305C19.8896 10.7948 20.5617 11.6201 21.3867 12.1802C20.4664 12.2549 19.59 12.5039 18.7863 12.8972C17.9449 10.9728 16.2497 9.60105 14.3013 9.26744C14.774 8.85417 15.1677 8.31394 15.4648 7.6542C16.3789 5.62021 16.1369 2.87546 14.9257 1.53482C14.0668 0.58505 13.0286 0.141906 11.6569 0.141906C10.2815 0.141906 9.24079 0.58505 8.38191 1.53482C7.1707 2.87546 6.92871 5.62022 7.84276 7.65295C8.13867 8.31145 8.53237 8.85168 9.00381 9.26495C6.14882 9.7442 3.95837 12.408 3.95837 15.6121V16.2955C3.95837 17.3698 4.78966 18.2424 5.81154 18.2424ZM32.8719 21.4477C32.8719 21.9157 32.5396 22.3103 32.1459 22.3103H16.4478C16.0541 22.3103 15.7219 21.9157 15.7219 21.4477V20.529C15.7219 16.7349 18.5292 13.6466 21.9798 13.6466H26.6152C30.0658 13.6466 32.8731 16.7337 32.8731 20.529V21.4477H32.8719ZM34.7865 2.53314C35.3545 1.90452 35.999 1.6369 36.9418 1.6369C37.8797 1.6369 38.5229 1.90452 39.0909 2.53314C39.8207 3.33976 40.0965 5.44097 39.3755 7.0455C39.0295 7.81602 38.3248 8.73467 36.9393 8.73467C35.5526 8.73467 34.8479 7.81602 34.5019 7.04425C33.7809 5.44097 34.058 3.33976 34.7865 2.53314ZM35.2128 10.6828H38.6634C41.1259 10.6828 43.1283 12.8948 43.1283 15.6134V16.2968C43.1283 16.5407 42.969 16.7474 42.7797 16.7474H33.5364C32.9634 15.5312 32.1233 14.4856 31.1002 13.7001C31.7936 11.9014 33.4223 10.6828 35.2128 10.6828ZM20.7861 9.1218C19.8483 7.03554 20.0476 4.07294 21.2124 2.78334C22.0299 1.87963 22.9528 1.49374 24.3006 1.49374C25.6422 1.49374 26.5626 1.87963 27.3801 2.78334C28.5449 4.07294 28.7442 7.03554 27.8064 9.1218C27.3099 10.2272 26.298 11.5429 24.2969 11.5429C22.2958 11.5442 21.2827 10.2272 20.7861 9.1218ZM9.50159 2.53314C10.0696 1.90452 10.7141 1.6369 11.6569 1.6369C12.5948 1.6369 13.238 1.90452 13.806 2.53314C14.5357 3.33976 14.8116 5.44221 14.0906 7.0455C13.7446 7.81602 13.0399 8.73467 11.6544 8.73467C10.2677 8.73467 9.56303 7.81602 9.21697 7.0455C8.49601 5.44221 8.77311 3.33976 9.50159 2.53314ZM5.46297 15.6134C5.46297 12.8948 7.46661 10.6828 9.92789 10.6828H13.3785C15.1689 10.6828 16.7989 11.9014 17.491 13.7014C16.4667 14.4868 15.6278 15.5325 15.0548 16.7486H5.81154C5.62221 16.7486 5.46297 16.542 5.46297 16.298V15.6134ZM27.3349 37.0187C27.6283 37.31 27.6283 37.783 27.3349 38.0756L25.0316 40.3622C24.8849 40.5079 24.6918 40.5813 24.5 40.5813C24.3082 40.5813 24.1151 40.5079 23.9684 40.3622L21.6651 38.0756C21.3717 37.7843 21.3717 37.3113 21.6651 37.0187C21.9585 36.7275 22.4349 36.7275 22.7296 37.0187L23.749 38.0307V29.7542C23.749 29.3421 24.0862 29.0073 24.5013 29.0073C24.9163 29.0073 25.2536 29.3421 25.2536 29.7542V38.0307L26.2729 37.0187C26.5651 36.7275 27.0415 36.7275 27.3349 37.0187ZM37.3581 32.7466C37.6515 33.0379 37.6515 33.5109 37.3581 33.8034L35.0548 36.0901C34.9144 36.2295 34.7225 36.3092 34.5232 36.3092C34.3238 36.3092 34.132 36.2308 33.9916 36.0901L31.6883 33.8034C31.3949 33.5122 31.3949 33.0392 31.6883 32.7466C31.9817 32.4553 32.4581 32.4553 32.7528 32.7466L33.7721 33.7586V29.1828C33.7721 28.7708 34.1094 28.4359 34.5244 28.4359C34.9395 28.4359 35.2767 28.7708 35.2767 29.1828V33.7586L36.2961 32.7466C36.5883 32.4541 37.0647 32.4541 37.3581 32.7466ZM17.313 32.7466C17.6064 33.0379 17.6064 33.5109 17.313 33.8034L15.0097 36.0901C14.8693 36.2295 14.6774 36.3092 14.4781 36.3092C14.2787 36.3092 14.0869 36.2308 13.9464 36.0901L11.6431 33.8034C11.3497 33.5122 11.3497 33.0392 11.6431 32.7466C11.9365 32.4553 12.413 32.4553 12.7077 32.7466L13.727 33.7586V29.1828C13.727 28.7708 14.0643 28.4359 14.4793 28.4359C14.8943 28.4359 15.2316 28.7708 15.2316 29.1828V33.7586L16.251 32.7466C16.5431 32.4541 17.0183 32.4541 17.313 32.7466ZM49 32.2213V27.4799C49 26.3596 48.0822 25.4484 46.9537 25.4484H2.04626C0.91781 25.4484 0 26.3596 0 27.4799V32.2014C0 32.8948 0.333522 33.5122 0.916556 33.8956L20.7347 46.9235V56.8918C20.7347 57.1594 20.8789 57.4059 21.1121 57.5391C21.2275 57.605 21.3579 57.6386 21.487 57.6386C21.6187 57.6386 21.7491 57.605 21.8669 57.5366L27.7199 54.1395C29.5943 57.6237 33.2957 60 37.5449 60C43.6825 60 48.6765 55.0433 48.6765 48.9488C48.6765 44.1862 45.6272 40.1183 41.3641 38.5685L48.1248 33.8881C48.6803 33.5022 49 32.8948 49 32.2213ZM47.1707 48.9475C47.1707 54.2167 42.8524 58.505 37.5437 58.505C32.2349 58.505 27.9167 54.218 27.9167 48.9475C27.9167 43.6771 32.2349 39.3901 37.5437 39.3901C42.8524 39.3901 47.1707 43.6783 47.1707 48.9475ZM47.4954 32.2213C47.4954 32.4105 47.4202 32.5549 47.2634 32.662L39.4621 38.0619C38.8389 37.9536 38.1969 37.8976 37.5437 37.8976C31.4061 37.8976 26.4121 42.8543 26.4121 48.9488C26.4121 50.2907 26.6541 51.5778 27.098 52.769L22.2381 55.5897V46.5227C22.2381 46.2625 22.1039 46.0335 21.9008 45.9003L1.74785 32.6495C1.58485 32.5425 1.50586 32.3956 1.50586 32.2014V27.4799C1.50586 27.1837 1.7491 26.9422 2.04752 26.9422H46.955C47.2534 26.9422 47.4967 27.1837 47.4967 27.4799V32.2213H47.4954ZM37.5437 42.1759C37.9587 42.1759 38.296 42.5107 38.296 42.9228V43.8588C39.4947 44.1738 40.3774 45.2231 40.3774 46.4667C40.3774 46.8787 40.0401 47.2135 39.6251 47.2135C39.21 47.2135 38.8727 46.8787 38.8727 46.4667C38.8727 45.7995 38.2772 45.2555 37.5437 45.2555C36.8114 45.2555 36.2146 45.7982 36.2146 46.4667C36.2146 47.1675 37.0447 47.5384 37.7405 47.7252C40.0351 48.3426 40.3774 49.682 40.3774 50.4263C40.3774 51.6686 39.4947 52.718 38.296 53.0342V53.9703C38.296 54.3823 37.9587 54.7171 37.5437 54.7171C37.1287 54.7171 36.7914 54.3823 36.7914 53.9703V53.0342C35.5927 52.7192 34.71 51.6699 34.71 50.4263C34.71 50.0143 35.0473 49.6795 35.4623 49.6795C35.8773 49.6795 36.2146 50.0143 36.2146 50.4263C36.2146 51.0935 36.8102 51.6375 37.5437 51.6375C38.2772 51.6375 38.8727 51.0948 38.8727 50.4263C38.8727 49.7255 38.0427 49.3546 37.3468 49.1679C35.0523 48.5504 34.71 47.2111 34.71 46.4679C34.71 45.2256 35.5927 44.1763 36.7914 43.8601V42.924C36.7914 42.5107 37.1287 42.1759 37.5437 42.1759Z" fill="black"/>
</g>
<defs>
<clipPath id="clip0_29_23">
<rect width="49" height="60" fill="white"/>
</clipPath>
</defs>
</svg>
