<svg width="60" height="60" viewBox="0 0 60 60" fill="none" xmlns="http://www.w3.org/2000/svg">
<g clip-path="url(#clip0_29_2)">
<path d="M30.0001 20.0022C24.4867 20.0022 20.0001 24.4894 20.0001 30.0033C20.0001 35.5173 24.4867 40.0044 30.0001 40.0044C35.5134 40.0044 40.0001 35.5173 40.0001 30.0033C40.0001 24.4894 35.5134 20.0022 30.0001 20.0022ZM30.0001 38.671C25.2201 38.671 21.3334 34.7839 21.3334 30.0033C21.3334 25.2228 25.2201 21.3357 30.0001 21.3357C34.7801 21.3357 38.6667 25.2228 38.6667 30.0033C38.6667 34.7839 34.7801 38.671 30.0001 38.671Z" fill="black"/>
<path d="M51.9667 50.4256C57.1467 44.8583 60 37.6309 60 30.0033C60 23.4493 57.9267 17.2219 54 12.0013V6.53406C54 6.2807 53.8533 6.04734 53.6267 5.93399C53.4 5.82065 53.1267 5.84732 52.9267 6.00067L50.3467 7.96755C44.7867 2.82698 37.5933 0 30 0C23.4467 0 17.22 2.07356 12 6.00067H6.66667C6.41333 6.00067 6.18 6.14068 6.06667 6.36737C5.95333 6.59407 5.98 6.86743 6.13333 7.06745L8.03333 9.5744C2.85333 15.1417 0 22.3692 0 29.9967C0 36.5507 2.07333 42.7781 6 47.9987V53.3326C6 53.586 6.14 53.8193 6.36667 53.9327C6.46 53.9793 6.56 53.9993 6.66667 53.9993C6.80667 53.9993 6.95333 53.9527 7.06667 53.866L9.57333 51.9658C15.14 57.1464 22.3667 60 29.9933 60C36.5467 60 42.7733 57.9264 47.9933 53.9993H53.3267C53.58 53.9993 53.8133 53.8593 53.9267 53.6326C54.04 53.4059 54.0133 53.1326 53.86 52.9326L51.96 50.4256H51.9667ZM30 1.33348C37.3333 1.33348 44.2867 4.09379 49.62 9.10768C49.78 9.66107 50.68 9.70775 50.92 9.20769L52.6667 7.88088V20.0022H40.5333L42.1733 17.3686C42.1733 17.3686 42.2133 17.3486 42.2267 17.3286C42.4733 17.0552 42.4467 16.6352 42.1733 16.3885C38.82 13.3882 34.4933 11.7346 29.9933 11.7346C26.9533 11.7346 23.98 12.4881 21.3267 13.9215V6.66741C21.3267 6.3007 21.0267 6.00067 20.66 6.00067H14.32C18.98 2.94699 24.36 1.33348 29.9933 1.33348H30ZM42.96 40.8779L39.6867 38.8243C39.48 38.6976 39.22 38.691 39.0067 38.8043C38.7933 38.9243 38.66 39.1444 38.66 39.391V44.5449C36.0467 46.1051 33.06 46.9386 29.9933 46.9386C26 46.9386 22.1667 45.5251 19.12 42.9648L21.1733 39.6911C21.3 39.4844 21.3067 39.2244 21.1933 39.011C21.0733 38.7976 20.8533 38.6643 20.6133 38.6643H15.46C13.9 36.0507 13.0667 33.0637 13.0667 29.9967C13.0667 26.0029 14.48 22.1691 17.04 19.1221L20.3133 21.1757C20.42 21.2424 20.5467 21.2757 20.6667 21.2757C20.78 21.2757 20.8867 21.249 20.9867 21.1957C21.2 21.0757 21.3333 20.8556 21.3333 20.609V15.4551C23.9467 13.8949 26.9333 13.0615 30 13.0615C33.9733 13.0615 37.7933 14.4616 40.8333 17.0019L38.7733 20.3089C38.6467 20.5156 38.64 20.7756 38.7533 20.9823C38.8733 21.1957 39.0933 21.3224 39.3333 21.3224H44.54C46.1 23.936 46.9333 26.923 46.9333 29.99C46.9333 33.9838 45.52 37.8175 42.96 40.8645V40.8779ZM1.33333 30.0033C1.33333 22.6759 4.08667 15.7351 9.09333 10.4012C9.2 10.3878 9.30667 10.3545 9.40667 10.2811C9.7 10.0611 9.76 9.64107 9.53333 9.34771L8.00667 7.33415H20V19.4088L17.3133 17.722C17.0133 17.5686 16.6333 17.542 16.3867 17.822C13.3867 21.1757 11.7333 25.4962 11.7333 30.0033C11.7333 33.0437 12.4867 36.0173 13.92 38.671H6.66667C6.3 38.671 6 38.971 6 39.3377V45.6784C2.94667 41.0179 1.33333 35.6373 1.33333 30.0033ZM30 58.6732C22.6733 58.6732 15.7333 55.9196 10.4 50.9123C10.3867 50.8056 10.3533 50.699 10.28 50.599C10.06 50.3056 9.64 50.2456 9.34667 50.4723L7.33333 51.9991V40.0044C7.33333 40.0044 15.0267 40.0578 15.1133 40.0578C15.2 40.0578 19.4133 40.0044 19.4133 40.0044L17.7267 42.6914C17.5733 42.9914 17.5467 43.3715 17.8267 43.6182C21.18 46.6185 25.5 48.272 30.0067 48.272C33.0467 48.272 36.02 47.5186 38.6733 46.0851V53.3393C38.6733 53.706 38.9733 54.006 39.34 54.006H45.68C41.02 57.0597 35.64 58.6732 30.0067 58.6732H30ZM40 52.6725V40.5978L42.6867 42.2847C42.9867 42.438 43.3667 42.4714 43.6133 42.1847C46.6133 38.831 48.2667 34.5105 48.2667 30.0033C48.2667 26.963 47.5133 23.9893 46.08 21.3357H53.3333C53.7 21.3357 54 21.0357 54 20.669V14.3283C57.0533 18.9888 58.6667 24.3694 58.6667 30.0033C58.6667 37.3308 55.9133 44.2716 50.9067 49.6055C50.8 49.6189 50.6867 49.6522 50.5933 49.7255C50.3 49.9456 50.24 50.3656 50.4667 50.659L51.9933 52.6725H40Z" fill="black"/>
<path d="M29.8198 29.5566C28.3198 29.5566 27.9998 28.8565 27.9998 28.2631C27.9998 28.1965 28.0198 26.5963 29.8198 26.5963C31.4798 26.5963 31.6998 27.7031 31.7265 27.9298C31.7665 28.2898 32.0932 28.5565 32.4532 28.5232C32.8198 28.4898 33.0865 28.1631 33.0532 27.7964C32.9798 27.0363 32.3798 25.6895 30.6665 25.3428V24.6694C30.6665 24.3027 30.3665 24.0027 29.9998 24.0027C29.6332 24.0027 29.3332 24.3027 29.3332 24.6694V25.2895C27.3865 25.5228 26.6665 27.143 26.6665 28.2565C26.6665 29.5233 27.4932 30.8834 29.8198 30.8834C30.4732 30.8834 31.9998 30.9901 31.9998 32.0102C31.9998 32.5969 31.3065 33.4037 29.9998 33.4037C29.0332 33.4037 27.9998 33.1237 27.9998 32.3436C27.9998 31.9769 27.6998 31.6768 27.3332 31.6768C26.9665 31.6768 26.6665 31.9769 26.6665 32.3436C26.6665 33.337 27.3865 34.4772 29.3332 34.6905V35.3239C29.3332 35.6906 29.6332 35.9907 29.9998 35.9907C30.3665 35.9907 30.6665 35.6906 30.6665 35.3239V34.6772C32.3265 34.4105 33.3332 33.1703 33.3332 32.0035C33.3332 31.4235 33.0798 29.5433 29.8198 29.5433V29.5566Z" fill="black"/>
</g>
<defs>
<clipPath id="clip0_29_2">
<rect width="60" height="60" fill="white"/>
</clipPath>
</defs>
</svg>
