<svg width="98" height="98" viewBox="0 0 98 98" fill="none" xmlns="http://www.w3.org/2000/svg">
<g opacity="0.15">
<path d="M11.0111 31.589L2.31845 28.0934L1.0653 31.2096L9.75796 34.7052L6.2623 43.3979L9.37852 44.651L12.8742 35.9583L21.5668 39.454L22.8199 36.3378L14.1273 32.8421L17.6229 24.1495L14.5067 22.8964L11.0111 31.589Z" fill="#7341F1"/>
<path d="M36.7679 20.6075L28.0753 17.1119L26.8221 20.2282L35.5148 23.7237L32.0191 32.4164L35.1354 33.6696L38.631 24.9769L47.3236 28.4726L48.5768 25.3564L39.8842 21.8607L43.3798 13.1681L40.2635 11.9149L36.7679 20.6075Z" fill="#7341F1"/>
<path d="M62.5243 9.62461L53.8316 6.12903L52.5785 9.24525L61.2711 12.7408L57.7755 21.4335L60.8917 22.6867L64.3874 13.994L73.08 17.4897L74.3331 14.3734L65.6405 10.8778L69.1361 2.18518L66.0199 0.932029L62.5243 9.62461Z" fill="#7341F1"/>
<path d="M21.8602 57.4034L13.1676 53.9078L11.9144 57.0241L20.6071 60.5196L17.1114 69.2123L20.2276 70.4655L23.7233 61.7728L32.4159 65.2685L33.6691 62.1523L24.9764 58.6566L28.4721 49.964L25.3558 48.7108L21.8602 57.4034Z" fill="#7341F1"/>
<path d="M47.6168 46.422L38.9242 42.9264L37.671 46.0426L46.3637 49.5382L42.868 58.2309L45.9842 59.484L49.4799 50.7913L58.1725 54.287L59.4257 51.1708L50.733 47.6751L54.2286 38.9825L51.1124 37.7294L47.6168 46.422Z" fill="#7341F1"/>
<path d="M73.3732 35.4391L64.6805 31.9435L63.4274 35.0597L72.12 38.5553L68.6244 47.248L71.7406 48.5011L75.2362 39.8084L83.9289 43.3041L85.182 40.1879L76.4894 36.6922L79.985 27.9996L76.8688 26.7465L73.3732 35.4391Z" fill="#7341F1"/>
<path d="M32.8429 83.1607L24.1502 79.6652L22.8971 82.7814L31.5897 86.277L28.0941 94.9696L31.2103 96.2228L34.706 87.5301L43.3986 91.0258L44.6517 87.9096L35.9591 84.4139L39.4547 75.7213L36.3385 74.4682L32.8429 83.1607Z" fill="#7341F1"/>
<path d="M58.5997 72.1798L49.9071 68.6842L48.6539 71.8004L57.3466 75.296L53.8509 83.9887L56.9671 85.2418L60.4628 76.5491L69.1554 80.0448L70.4086 76.9286L61.7159 73.4329L65.2116 64.7404L62.0953 63.4872L58.5997 72.1798Z" fill="#7341F1"/>
<path d="M84.3558 61.1964L75.6632 57.7008L74.41 60.817L83.1027 64.3126L79.607 73.0053L82.7232 74.2584L86.2189 65.5657L94.9115 69.0614L96.1647 65.9452L87.472 62.4495L90.9677 53.757L87.8514 52.5038L84.3558 61.1964Z" fill="#7341F1"/>
</g>
</svg>
