<svg width="597" height="473" viewBox="0 0 597 473" fill="none" xmlns="http://www.w3.org/2000/svg">
<path d="M54.0988 25.5899H55.7693V473H54.0988V25.5899Z" fill="url(#paint0_linear_4512_135)" fill-opacity="0.08"/>
<path d="M177.222 25.5899H178.489V472.915H177.222V25.5899Z" fill="url(#paint1_linear_4512_135)" fill-opacity="0.08"/>
<path d="M300.341 0H301.608V472.915H300.341V0Z" fill="url(#paint2_linear_4512_135)" fill-opacity="0.08"/>
<path d="M423.46 0H424.727V472.915H423.46V0Z" fill="url(#paint3_linear_4512_135)" fill-opacity="0.08"/>
<path d="M549.392 0H550.227V473H549.392V0Z" fill="url(#paint4_linear_4512_135)" fill-opacity="0.08"/>
<path d="M0 442.966H597V444.258H0V442.966Z" fill="url(#paint5_linear_4512_135)" fill-opacity="0.08"/>
<path d="M0 355.221H597V356.513H0V355.221Z" fill="url(#paint6_linear_4512_135)" fill-opacity="0.08"/>
<path d="M0 267.475H597V268.767H0V267.475Z" fill="url(#paint7_linear_4512_135)" fill-opacity="0.08"/>
<path d="M0 176.852H597V178.144H0V176.852Z" fill="url(#paint8_linear_4512_135)" fill-opacity="0.08"/>
<path d="M0 86.2211H597V87.5131H0V86.2211Z" fill="url(#paint9_linear_4512_135)" fill-opacity="0.08"/>
<defs>
<linearGradient id="paint0_linear_4512_135" x1="447.177" y1="347.527" x2="198.502" y2="135.052" gradientUnits="userSpaceOnUse">
<stop stop-color="#2EB67D"/>
<stop offset="0.430949" stop-color="white" stop-opacity="0.25"/>
<stop offset="1" stop-color="#2EB67D"/>
</linearGradient>
<linearGradient id="paint1_linear_4512_135" x1="447.177" y1="347.527" x2="198.502" y2="135.052" gradientUnits="userSpaceOnUse">
<stop stop-color="#2EB67D"/>
<stop offset="0.430949" stop-color="white" stop-opacity="0.25"/>
<stop offset="1" stop-color="#2EB67D"/>
</linearGradient>
<linearGradient id="paint2_linear_4512_135" x1="447.177" y1="347.527" x2="198.502" y2="135.052" gradientUnits="userSpaceOnUse">
<stop stop-color="#2EB67D"/>
<stop offset="0.430949" stop-color="white" stop-opacity="0.25"/>
<stop offset="1" stop-color="#2EB67D"/>
</linearGradient>
<linearGradient id="paint3_linear_4512_135" x1="447.177" y1="347.527" x2="198.502" y2="135.052" gradientUnits="userSpaceOnUse">
<stop stop-color="#2EB67D"/>
<stop offset="0.430949" stop-color="white" stop-opacity="0.25"/>
<stop offset="1" stop-color="#2EB67D"/>
</linearGradient>
<linearGradient id="paint4_linear_4512_135" x1="447.177" y1="347.527" x2="198.502" y2="135.052" gradientUnits="userSpaceOnUse">
<stop stop-color="#2EB67D"/>
<stop offset="0.430949" stop-color="white" stop-opacity="0.25"/>
<stop offset="1" stop-color="#2EB67D"/>
</linearGradient>
<linearGradient id="paint5_linear_4512_135" x1="447.177" y1="347.527" x2="198.502" y2="135.052" gradientUnits="userSpaceOnUse">
<stop stop-color="#2EB67D"/>
<stop offset="0.430949" stop-color="white" stop-opacity="0.25"/>
<stop offset="1" stop-color="#2EB67D"/>
</linearGradient>
<linearGradient id="paint6_linear_4512_135" x1="447.177" y1="347.527" x2="198.502" y2="135.052" gradientUnits="userSpaceOnUse">
<stop stop-color="#2EB67D"/>
<stop offset="0.430949" stop-color="white" stop-opacity="0.25"/>
<stop offset="1" stop-color="#2EB67D"/>
</linearGradient>
<linearGradient id="paint7_linear_4512_135" x1="447.177" y1="347.527" x2="198.502" y2="135.052" gradientUnits="userSpaceOnUse">
<stop stop-color="#2EB67D"/>
<stop offset="0.430949" stop-color="white" stop-opacity="0.25"/>
<stop offset="1" stop-color="#2EB67D"/>
</linearGradient>
<linearGradient id="paint8_linear_4512_135" x1="447.177" y1="347.527" x2="198.502" y2="135.052" gradientUnits="userSpaceOnUse">
<stop stop-color="#2EB67D"/>
<stop offset="0.430949" stop-color="white" stop-opacity="0.25"/>
<stop offset="1" stop-color="#2EB67D"/>
</linearGradient>
<linearGradient id="paint9_linear_4512_135" x1="447.177" y1="347.527" x2="198.502" y2="135.052" gradientUnits="userSpaceOnUse">
<stop stop-color="#2EB67D"/>
<stop offset="0.430949" stop-color="white" stop-opacity="0.25"/>
<stop offset="1" stop-color="#2EB67D"/>
</linearGradient>
</defs>
</svg>
