<svg width="30" height="30" viewBox="0 0 30 30" fill="none" xmlns="http://www.w3.org/2000/svg">
<path d="M21.25 27.5C17.8037 27.5 15 24.6962 15 21.25C15 17.8037 17.8037 15 21.25 15C24.6962 15 27.5 17.8037 27.5 21.25C27.5 24.6962 24.6962 27.5 21.25 27.5ZM21.25 16.875C18.8375 16.875 16.875 18.8375 16.875 21.25C16.875 23.6625 18.8375 25.625 21.25 25.625C23.6625 25.625 25.625 23.6625 25.625 21.25C25.625 18.8375 23.6625 16.875 21.25 16.875Z" fill="white"/>
<path d="M29.0624 30C28.8224 30 28.5824 29.9087 28.3999 29.725L24.3374 25.6625C23.9712 25.2962 23.9712 24.7025 24.3374 24.3362C24.7037 23.97 25.2974 23.97 25.6637 24.3362L29.7262 28.3987C30.0924 28.765 30.0924 29.3587 29.7262 29.725C29.5424 29.9087 29.3024 30 29.0624 30Z" fill="white"/>
<path d="M13.1625 26.25H3.4375C1.54125 26.25 0 24.7087 0 22.8125V3.4375C0 1.54125 1.54125 0 3.4375 0H17.8125C19.7087 0 21.25 1.54125 21.25 3.4375V12.2375C21.25 12.755 20.83 13.175 20.3125 13.175C19.795 13.175 19.375 12.755 19.375 12.2375V3.4375C19.375 2.57625 18.6737 1.875 17.8125 1.875H3.4375C2.57625 1.875 1.875 2.57625 1.875 3.4375V22.8125C1.875 23.6737 2.57625 24.375 3.4375 24.375H13.1625C13.68 24.375 14.1 24.795 14.1 25.3125C14.1 25.83 13.68 26.25 13.1625 26.25Z" fill="white"/>
<path d="M16.5625 11.875H4.6875C4.17 11.875 3.75 11.455 3.75 10.9375C3.75 10.42 4.17 10 4.6875 10H16.5625C17.08 10 17.5 10.42 17.5 10.9375C17.5 11.455 17.08 11.875 16.5625 11.875Z" fill="white"/>
<path d="M11.5625 16.875H4.6875C4.17 16.875 3.75 16.455 3.75 15.9375C3.75 15.42 4.17 15 4.6875 15H11.5625C12.08 15 12.5 15.42 12.5 15.9375C12.5 16.455 12.08 16.875 11.5625 16.875Z" fill="white"/>
<path d="M10.3125 6.875H4.6875C4.17 6.875 3.75 6.455 3.75 5.9375C3.75 5.42 4.17 5 4.6875 5H10.3125C10.83 5 11.25 5.42 11.25 5.9375C11.25 6.455 10.83 6.875 10.3125 6.875Z" fill="white"/>
</svg>
