<svg width="18" height="17" viewBox="0 0 18 17" fill="none" xmlns="http://www.w3.org/2000/svg">
<path d="M7.64844 1.27344L0.773438 7.83594C0.591146 8.01823 0.5 8.23958 0.5 8.5C0.5 8.76042 0.591146 8.98177 0.773438 9.16406L7.64844 15.7266C8.11719 16.0911 8.5599 16.0911 8.97656 15.7266C9.34115 15.2578 9.34115 14.8151 8.97656 14.3984L3.78125 9.4375H17.0625C17.6354 9.38542 17.9479 9.07292 18 8.5C17.9479 7.92708 17.6354 7.61458 17.0625 7.5625H3.78125L8.97656 2.60156C9.34115 2.1849 9.34115 1.74219 8.97656 1.27344C8.5599 0.908854 8.11719 0.908854 7.64844 1.27344Z" fill="#1A1A2E"/>
</svg>
