<svg width="33" height="30" viewBox="0 0 33 30" fill="none" xmlns="http://www.w3.org/2000/svg">
<path d="M26.921 29.9999C27.401 29.9999 27.7894 29.6053 27.7894 29.1176V24.7058H32.1315C32.6115 24.7058 33 24.3112 33 23.8235C33 23.3357 32.6116 22.9411 32.1315 22.9411H27.7894V18.5293C27.7894 18.0417 27.401 17.647 26.921 17.647C26.441 17.647 26.0526 18.0416 26.0526 18.5293V22.9411H21.7105C21.2305 22.9411 20.842 23.3357 20.842 23.8235C20.842 24.3112 21.2304 24.7058 21.7105 24.7058H26.0526V29.1176C26.0526 29.6053 26.441 29.9999 26.921 29.9999Z" fill="white"/>
<path d="M4.34208 24.7059H18.2368C18.7168 24.7059 19.1053 24.3113 19.1053 23.8235C19.1053 23.3358 18.7169 22.9411 18.2368 22.9411H4.34208C2.90548 22.9411 1.73682 21.7537 1.73682 20.2941V10.5882H31.2631V20.2941C31.2631 20.7818 31.6515 21.1765 32.1316 21.1765C32.6116 21.1765 33 20.7818 33 20.2941V4.41174C33 1.97922 31.052 1.625e-09 28.6579 1.625e-09H4.34208C1.94803 -6.54855e-05 0 1.97922 0 4.41174V20.2941C0 22.7266 1.94803 24.7059 4.34208 24.7059ZM4.34208 1.76468H28.6579C30.0945 1.76468 31.2631 2.9521 31.2631 4.41174V8.82348H1.73682V4.41174C1.73682 2.95203 2.90548 1.76468 4.34208 1.76468Z" fill="white"/>
<path d="M7.8162 15.8823C7.33621 15.8823 6.94775 16.2769 6.94775 16.7647C6.94775 17.2524 7.33615 17.6471 7.8162 17.6471H11.2899C11.7699 17.6471 12.1583 17.2524 12.1583 16.7647C12.1583 16.2769 11.7699 15.8823 11.2899 15.8823H7.8162Z" fill="white"/>
</svg>
