<svg width="30" height="30" viewBox="0 0 30 30" fill="none" xmlns="http://www.w3.org/2000/svg">
<path d="M29.7837 16.8295C29.7803 16.8233 29.7774 16.817 29.7738 16.811C29.6321 16.5756 29.4326 16.3841 29.1984 16.2576L26.6148 14.8523C26.8535 14.2824 26.9856 13.6561 26.9856 12.9993C26.9856 12.6031 26.9374 12.2092 26.8422 11.8285C26.7827 11.5904 26.5437 11.446 26.3085 11.5063C26.0732 11.5665 25.9307 11.8084 25.9901 12.0465C26.0675 12.3561 26.1067 12.6766 26.1067 12.9992C26.1067 15.1348 24.39 16.8722 22.2799 16.8722C20.1699 16.8722 18.4532 15.1348 18.4532 12.9992C18.4532 10.8636 20.1699 9.12619 22.2799 9.12619C23.3517 9.12619 24.3815 9.58566 25.1051 10.3868C25.2689 10.5681 25.5468 10.5807 25.7259 10.4149C25.9051 10.2493 25.9175 9.96786 25.7538 9.78658C24.864 8.80157 23.5979 8.23666 22.2799 8.23666C19.6852 8.23666 17.5743 10.3731 17.5743 12.9992C17.5743 13.6561 17.7064 14.2824 17.9451 14.8522L15.4394 16.2153V8.29098L21.8401 4.98834V6.5602C21.8401 6.80583 22.0368 7.00496 22.2795 7.00496C22.5222 7.00496 22.719 6.80583 22.719 6.5602V4.93556C22.719 4.64558 22.6409 4.36193 22.4931 4.11536C22.3522 3.88034 22.153 3.6885 21.9174 3.56082L15.6948 0.17753C15.2635 -0.0574244 14.7477 -0.0592035 14.3144 0.17243C14.314 0.172667 14.3135 0.172904 14.3131 0.173142C14.3104 0.174505 14.3077 0.175988 14.3051 0.177411L8.0827 3.56059C7.64319 3.7937 7.2867 4.32706 7.28061 4.93562L7.28079 12.7334L0.802791 16.257C0.362284 16.4892 0.00574218 17.0254 0 17.6323V25.2365C0 25.8298 0.318046 26.3624 0.829862 26.6262L7.05344 29.8373C7.40618 30.0193 7.91858 30.0712 8.38616 29.8373L10.6644 28.6621C10.8806 28.5506 10.9666 28.2828 10.8563 28.0639C10.7461 27.845 10.4814 27.7581 10.2653 27.8696L8.15969 28.9558V20.988L14.5605 17.6852V25.654L12.1322 26.9066C11.916 27.0181 11.8301 27.2859 11.9403 27.5048C12.0505 27.7236 12.3151 27.8106 12.5314 27.6991L15 26.4257L21.6131 29.837C21.8169 29.9425 22.045 29.9986 22.2732 29.9996C22.2755 29.9997 22.2777 30 22.2799 30C22.51 30 22.7405 29.9437 22.9463 29.8374L29.17 26.6263C29.682 26.3623 30 25.8298 30 25.2365V17.6323C29.9999 17.349 29.9249 17.0721 29.7837 16.8295ZM8.15969 12.7334L8.15952 4.98828L14.5605 8.29098V16.2153L8.15969 12.7334ZM18.3629 15.6348C19.2072 16.9159 20.6475 17.7617 22.2799 17.7617C23.9122 17.7617 25.3526 16.9159 26.1969 15.6348L28.6125 16.9488L22.2796 20.2163L15.9473 16.9488L18.3629 15.6348ZM14.7178 0.962747C14.7198 0.961679 14.7219 0.960553 14.7239 0.959485C14.8978 0.865966 15.105 0.8665 15.2786 0.960968L21.3317 4.25217L15 7.51923L8.66787 4.25217L14.7178 0.962747ZM7.72024 13.5042L14.0526 16.9488L7.7203 20.2163L1.38744 16.9488L7.72024 13.5042ZM7.28061 28.956L1.22888 25.8336C1.01631 25.724 0.878905 25.4896 0.878905 25.2365V17.6849L7.28061 20.988V28.956ZM15.4394 25.654V17.6852L21.8403 20.9881V28.9558L15.4394 25.654ZM29.121 25.2365C29.121 25.4897 28.9836 25.724 28.7709 25.8337L22.7193 28.9561V20.988L29.121 17.6849V25.2365Z" fill="white"/>
<path d="M23.8871 11.5415L21.6807 13.8892L20.5775 12.8547C20.3995 12.6877 20.1214 12.6985 19.9564 12.8787C19.7915 13.0588 19.8021 13.3402 19.9801 13.5072L21.4014 14.8401C21.4859 14.9193 21.5931 14.9586 21.7 14.9586C21.8162 14.9586 21.9322 14.9122 22.0185 14.8204L24.5239 12.1546C24.6912 11.9767 24.6842 11.6951 24.5084 11.5259C24.3326 11.3566 24.0545 11.3635 23.8871 11.5415Z" fill="white"/>
</svg>
