<?xml version="1.0" encoding="UTF-8"?>
<svg id="Camada_1" xmlns="http://www.w3.org/2000/svg" version="1.1" viewBox="0 0 1080 1080">
  <!-- Generator: Adobe Illustrator 30.3.0, SVG Export Plug-In . SVG Version: 2.1.3 Build 182)  -->
  <defs>
    <style>
      .st0 {
        fill: #fff;
      }
    </style>
  </defs>
  <path class="st0" d="M562.19,152.89c-161.3,0-292.06,130.76-292.06,292.06s130.76,292.06,292.06,292.06,292.06-130.76,292.06-292.06-130.76-292.06-292.06-292.06ZM603.75,672.36c-125.6,0-227.41-101.82-227.41-227.41s101.81-227.41,227.41-227.41,227.41,101.82,227.41,227.41-101.81,227.41-227.41,227.41Z"/>
  <path class="st0" d="M125.71,542.28c0,219.57,177.99,397.56,397.56,397.56s397.56-177.99,397.56-397.56-177.99-397.56-397.56-397.56S125.71,322.72,125.71,542.28ZM832.83,485.71c0,170.97-138.6,309.56-309.56,309.56s-309.56-138.6-309.56-309.56,138.6-309.56,309.56-309.56,309.56,138.6,309.56,309.56Z"/>
  <path class="st0" d="M538.51,1063.44c287.83,0,521.15-233.33,521.15-521.15S826.34,21.13,538.51,21.13,17.36,254.46,17.36,542.28s233.33,521.15,521.15,521.15ZM464.36,136.48c224.12,0,405.8,181.68,405.8,405.8s-181.68,405.8-405.8,405.8S58.56,766.4,58.56,542.28,240.24,136.48,464.36,136.48Z"/>
</svg>