<?xml version="1.0" encoding="UTF-8"?>
<svg id="Camada_1" xmlns="http://www.w3.org/2000/svg" version="1.1" xmlns:xlink="http://www.w3.org/1999/xlink" viewBox="0 0 1080 1080">
  <!-- Generator: Adobe Illustrator 30.3.0, SVG Export Plug-In . SVG Version: 2.1.3 Build 182)  -->
  <defs>
    <style>
      .st0 {
        fill: url(#Gradiente_sem_nome_120);
      }

      .st1 {
        fill: url(#Gradiente_sem_nome_80);
      }

      .st2 {
        font-family: Montserrat-ExtraBold, Montserrat;
        font-size: 42.87px;
        letter-spacing: .1em;
      }

      .st2, .st3 {
        fill: #546061;
        font-weight: 700;
      }

      .st4 {
        fill: url(#Gradiente_sem_nome_18);
      }

      .st3 {
        font-family: Montserrat-Bold, Montserrat;
        font-size: 303.46px;
      }
    </style>
    <radialGradient id="Gradiente_sem_nome_120" data-name="Gradiente sem nome 120" cx="221.95" cy="213.37" fx="221.95" fy="213.37" r="344.68" gradientTransform="translate(642.89 530.09) rotate(-180)" gradientUnits="userSpaceOnUse">
      <stop offset="0" stop-color="#375d61"/>
      <stop offset=".33" stop-color="#385f63"/>
      <stop offset=".54" stop-color="#3d676c"/>
      <stop offset=".71" stop-color="#45757a"/>
      <stop offset=".85" stop-color="#50888e"/>
      <stop offset=".99" stop-color="#5fa1a8"/>
      <stop offset="1" stop-color="#61a4ab"/>
    </radialGradient>
    <radialGradient id="Gradiente_sem_nome_80" data-name="Gradiente sem nome 80" cx="191.9" cy="188.71" fx="191.9" fy="188.71" r="298.33" gradientTransform="translate(642.89 530.09) rotate(-180)" gradientUnits="userSpaceOnUse">
      <stop offset="0" stop-color="aqua"/>
      <stop offset=".08" stop-color="#06ebeb"/>
      <stop offset=".25" stop-color="#17b8ba"/>
      <stop offset=".48" stop-color="#33686b"/>
      <stop offset=".51" stop-color="#375d61"/>
      <stop offset=".67" stop-color="#385f63"/>
      <stop offset=".77" stop-color="#3d676c"/>
      <stop offset=".86" stop-color="#45757a"/>
      <stop offset=".93" stop-color="#50888e"/>
      <stop offset="1" stop-color="#5fa1a8"/>
      <stop offset="1" stop-color="#61a4ab"/>
    </radialGradient>
    <linearGradient id="Gradiente_sem_nome_18" data-name="Gradiente sem nome 18" x1="752.04" y1="97.36" x2="448.89" y2="388.26" gradientUnits="userSpaceOnUse">
      <stop offset="0" stop-color="#3bffff"/>
      <stop offset=".02" stop-color="#3af5f5"/>
      <stop offset=".13" stop-color="#39ccce"/>
      <stop offset=".24" stop-color="#38aaac"/>
      <stop offset=".35" stop-color="#388e90"/>
      <stop offset=".48" stop-color="#37787b"/>
      <stop offset=".61" stop-color="#37686c"/>
      <stop offset=".77" stop-color="#375f63"/>
      <stop offset="1" stop-color="#375d61"/>
    </linearGradient>
  </defs>
  <path class="st0" d="M542.2,87.91c-92.74,0-167.92,75.18-167.92,167.92s75.18,167.92,167.92,167.92,167.92-75.18,167.92-167.92-75.18-167.92-167.92-167.92ZM566.09,386.58c-72.21,0-130.75-58.54-130.75-130.75s58.54-130.75,130.75-130.75,130.75,58.54,130.75,130.75-58.54,130.75-130.75,130.75Z"/>
  <path class="st1" d="M291.24,311.79c0,126.24,102.34,228.58,228.58,228.58s228.58-102.34,228.58-228.58-102.34-228.58-228.58-228.58-228.58,102.34-228.58,228.58ZM697.8,279.27c0,98.3-79.69,177.98-177.98,177.98s-177.98-79.69-177.98-177.98,79.69-177.98,177.98-177.98,177.98,79.69,177.98,177.98Z"/>
  <path class="st4" d="M528.58,611.43c165.49,0,299.64-134.15,299.64-299.64S694.07,12.15,528.58,12.15,228.94,146.31,228.94,311.79s134.15,299.64,299.64,299.64ZM485.94,78.48c128.86,0,233.32,104.46,233.32,233.32s-104.46,233.32-233.32,233.32-233.32-104.46-233.32-233.32,104.46-233.32,233.32-233.32Z"/>
  <text class="st3" transform="translate(41.24 915.55)"><tspan x="0" y="0">rulees</tspan></text>
  <text class="st2" transform="translate(176.17 1016.05)"><tspan x="0" y="0">Onde o negócio se define.</tspan></text>
</svg>